<svg xmlns="http://www.w3.org/2000/svg" width="1440" viewBox="0 0 1440 810" height="810" version="1.0"><defs><clipPath id="a"><path d="M 1314 142 L 1440 142 L 1440 360 L 1314 360 Z M 1314 142"/></clipPath><clipPath id="b"><path d="M 1298.785156 374.984375 L 1281.203125 149.167969 L 1581.042969 125.816406 L 1598.628906 351.632812 Z M 1298.785156 374.984375"/></clipPath><clipPath id="c"><path d="M 1298.785156 374.984375 L 1281.203125 149.167969 L 1581.042969 125.816406 L 1598.628906 351.632812 Z M 1298.785156 374.984375"/></clipPath><clipPath id="d"><path d="M 0 453 L 165 453 L 165 796 L 0 796 Z M 0 453"/></clipPath><clipPath id="e"><path d="M -37.910156 441.515625 L 259.878906 539.511719 L 158.601562 847.277344 L -139.1875 749.28125 Z M -37.910156 441.515625"/></clipPath><clipPath id="f"><path d="M -37.910156 441.515625 L 259.878906 539.511719 L 158.601562 847.277344 L -139.1875 749.28125 Z M -37.910156 441.515625"/></clipPath><clipPath id="g"><path d="M 1295.664062 137.542969 L 1422.414062 137.542969 L 1422.414062 264.292969 L 1295.664062 264.292969 Z M 1295.664062 137.542969"/></clipPath><clipPath id="h"><path d="M 8.605469 571.78125 L 135.355469 571.78125 L 135.355469 698.53125 L 8.605469 698.53125 Z M 8.605469 571.78125"/></clipPath></defs><path fill="#FFF" d="M-144 -81H1584V891H-144z"/><path fill="#FFF" d="M-144 -81H1584V891H-144z"/><path fill="#FFF" d="M-144 -81H1584V891H-144z"/><g clip-path="url(#a)"><g clip-path="url(#b)"><g clip-path="url(#c)"><path fill="#B6E4FF" d="M 1330.902344 245.921875 C 1322.121094 268.714844 1294.71875 322.734375 1338.488281 343.339844 C 1382.257812 363.949219 1403.886719 366.808594 1471.425781 342.722656 C 1538.964844 318.640625 1592.289062 270.351562 1547.984375 209.546875 C 1503.679688 148.742188 1459.167969 135.328125 1393.75 144.96875 C 1328.332031 154.605469 1346.707031 204.886719 1330.902344 245.921875 Z M 1330.902344 245.921875"/></g></g></g><g clip-path="url(#d)"><g clip-path="url(#e)"><g clip-path="url(#f)"><path fill="#B6E4FF" d="M -41.519531 453.421875 C -41.519531 453.421875 50.054688 470.464844 53.390625 518.695312 C 56.726562 566.925781 27.179688 626.15625 77.988281 656.84375 C 128.800781 687.535156 198.191406 726.078125 146.910156 757.207031 C 95.628906 788.339844 -0.015625 795.078125 -0.015625 795.078125 L -138.910156 749.371094 Z M -41.519531 453.421875"/></g></g></g><g clip-path="url(#g)"><path fill="#E3D7CF" d="M 1412.753906 154.425781 C 1413.675781 154.425781 1414.414062 155.164062 1414.414062 156.085938 C 1414.414062 157.007812 1413.675781 157.742188 1412.753906 157.742188 C 1411.832031 157.742188 1411.097656 157.007812 1411.097656 156.085938 C 1411.097656 155.164062 1411.832031 154.425781 1412.753906 154.425781 Z M 1420.597656 165.453125 C 1421.519531 165.453125 1422.253906 164.71875 1422.253906 163.796875 C 1422.253906 162.875 1421.519531 162.136719 1420.597656 162.136719 C 1419.675781 162.136719 1418.9375 162.875 1418.9375 163.796875 C 1418.9375 164.71875 1419.675781 165.453125 1420.597656 165.453125 Z M 1420.625 149.898438 C 1421.542969 149.898438 1422.28125 149.164062 1422.28125 148.242188 C 1422.28125 147.320312 1421.542969 146.582031 1420.625 146.582031 C 1419.703125 146.582031 1418.964844 147.320312 1418.964844 148.242188 C 1418.964844 149.164062 1419.703125 149.898438 1420.625 149.898438 Z M 1395.9375 171.246094 C 1395.9375 172.164062 1396.671875 172.902344 1397.59375 172.902344 C 1398.515625 172.902344 1399.253906 172.164062 1399.253906 171.246094 C 1399.253906 170.324219 1398.515625 169.585938 1397.59375 169.585938 C 1396.671875 169.585938 1395.9375 170.324219 1395.9375 171.246094 Z M 1413.148438 169.585938 C 1412.226562 169.585938 1411.492188 170.324219 1411.492188 171.246094 C 1411.492188 172.164062 1412.226562 172.902344 1413.148438 172.902344 C 1414.070312 172.902344 1414.808594 172.164062 1414.808594 171.246094 C 1414.808594 170.324219 1414.070312 169.585938 1413.148438 169.585938 Z M 1405.464844 180.613281 C 1406.386719 180.613281 1407.121094 179.875 1407.121094 178.957031 C 1407.121094 178.035156 1406.386719 177.296875 1405.464844 177.296875 C 1404.542969 177.296875 1403.804688 178.035156 1403.804688 178.957031 C 1403.804688 179.875 1404.542969 180.613281 1405.464844 180.613281 Z M 1403.804688 163.375 C 1403.804688 164.296875 1404.542969 165.03125 1405.464844 165.03125 C 1406.386719 165.03125 1407.121094 164.296875 1407.121094 163.375 C 1407.121094 162.453125 1406.386719 161.71875 1405.464844 161.71875 C 1404.542969 161.71875 1403.804688 162.453125 1403.804688 163.375 Z M 1412.886719 188.195312 C 1413.808594 188.195312 1414.542969 187.457031 1414.542969 186.535156 C 1414.542969 185.613281 1413.808594 184.878906 1412.886719 184.878906 C 1411.964844 184.878906 1411.226562 185.613281 1411.226562 186.535156 C 1411.226562 187.457031 1411.964844 188.195312 1412.886719 188.195312 Z M 1422.386719 194.21875 C 1422.386719 193.300781 1421.648438 192.5625 1420.730469 192.5625 C 1419.808594 192.5625 1419.070312 193.300781 1419.070312 194.21875 C 1419.070312 195.140625 1419.808594 195.878906 1420.730469 195.878906 C 1421.648438 195.878906 1422.386719 195.140625 1422.386719 194.21875 Z M 1420.730469 176.980469 C 1419.808594 176.980469 1419.070312 177.71875 1419.070312 178.640625 C 1419.070312 179.5625 1419.808594 180.296875 1420.730469 180.296875 C 1421.648438 180.296875 1422.386719 179.5625 1422.386719 178.640625 C 1422.386719 177.71875 1421.648438 176.980469 1420.730469 176.980469 Z M 1382.332031 188.167969 C 1383.25 188.167969 1383.988281 187.429688 1383.988281 186.507812 C 1383.988281 185.585938 1383.25 184.851562 1382.332031 184.851562 C 1381.410156 184.851562 1380.671875 185.585938 1380.671875 186.507812 C 1380.671875 187.429688 1381.410156 188.167969 1382.332031 188.167969 Z M 1397.882812 184.851562 C 1396.964844 184.851562 1396.226562 185.585938 1396.226562 186.507812 C 1396.226562 187.429688 1396.964844 188.167969 1397.882812 188.167969 C 1398.804688 188.167969 1399.542969 187.429688 1399.542969 186.507812 C 1399.542969 185.585938 1398.804688 184.851562 1397.882812 184.851562 Z M 1390.199219 195.878906 C 1391.121094 195.878906 1391.859375 195.140625 1391.859375 194.21875 C 1391.859375 193.300781 1391.121094 192.5625 1390.199219 192.5625 C 1389.277344 192.5625 1388.542969 193.300781 1388.542969 194.21875 C 1388.515625 195.113281 1389.277344 195.878906 1390.199219 195.878906 Z M 1388.542969 178.640625 C 1388.542969 179.5625 1389.277344 180.296875 1390.199219 180.296875 C 1391.121094 180.296875 1391.859375 179.5625 1391.859375 178.640625 C 1391.859375 177.71875 1391.121094 176.980469 1390.199219 176.980469 C 1389.277344 176.980469 1388.542969 177.71875 1388.542969 178.640625 Z M 1397.59375 203.457031 C 1398.515625 203.457031 1399.253906 202.722656 1399.253906 201.800781 C 1399.253906 200.878906 1398.515625 200.140625 1397.59375 200.140625 C 1396.671875 200.140625 1395.9375 200.878906 1395.9375 201.800781 C 1395.9375 202.722656 1396.699219 203.457031 1397.59375 203.457031 Z M 1413.148438 200.117188 C 1412.226562 200.117188 1411.492188 200.851562 1411.492188 201.773438 C 1411.492188 202.695312 1412.226562 203.433594 1413.148438 203.433594 C 1414.070312 203.433594 1414.808594 202.695312 1414.808594 201.773438 C 1414.808594 200.851562 1414.070312 200.117188 1413.148438 200.117188 Z M 1405.464844 207.828125 C 1404.542969 207.828125 1403.804688 208.5625 1403.804688 209.484375 C 1403.804688 210.40625 1404.542969 211.144531 1405.464844 211.144531 C 1406.386719 211.144531 1407.121094 210.40625 1407.121094 209.484375 C 1407.121094 208.5625 1406.386719 207.828125 1405.464844 207.828125 Z M 1405.464844 192.246094 C 1404.542969 192.246094 1403.804688 192.984375 1403.804688 193.90625 C 1403.804688 194.824219 1404.542969 195.5625 1405.464844 195.5625 C 1406.386719 195.5625 1407.121094 194.824219 1407.121094 193.90625 C 1407.121094 192.984375 1406.386719 192.246094 1405.464844 192.246094 Z M 1412.886719 215.40625 C 1411.964844 215.40625 1411.226562 216.144531 1411.226562 217.066406 C 1411.226562 217.984375 1411.964844 218.722656 1412.886719 218.722656 C 1413.808594 218.722656 1414.542969 217.984375 1414.542969 217.066406 C 1414.542969 216.144531 1413.808594 215.40625 1412.886719 215.40625 Z M 1420.730469 223.089844 C 1419.808594 223.089844 1419.070312 223.828125 1419.070312 224.75 C 1419.070312 225.671875 1419.808594 226.40625 1420.730469 226.40625 C 1421.648438 226.40625 1422.386719 225.671875 1422.386719 224.75 C 1422.386719 223.828125 1421.648438 223.089844 1420.730469 223.089844 Z M 1420.753906 210.855469 C 1421.675781 210.855469 1422.414062 210.117188 1422.414062 209.195312 C 1422.414062 208.273438 1421.675781 207.539062 1420.753906 207.539062 C 1419.835938 207.539062 1419.097656 208.273438 1419.097656 209.195312 C 1419.097656 210.117188 1419.835938 210.855469 1420.753906 210.855469 Z M 1367.195312 203.328125 C 1368.117188 203.328125 1368.855469 202.589844 1368.855469 201.667969 C 1368.855469 200.746094 1368.117188 200.011719 1367.195312 200.011719 C 1366.277344 200.011719 1365.539062 200.746094 1365.539062 201.667969 C 1365.539062 202.589844 1366.277344 203.328125 1367.195312 203.328125 Z M 1382.726562 199.984375 C 1381.804688 199.984375 1381.066406 200.722656 1381.066406 201.640625 C 1381.066406 202.5625 1381.804688 203.300781 1382.726562 203.300781 C 1383.644531 203.300781 1384.382812 202.5625 1384.382812 201.640625 C 1384.382812 200.722656 1383.644531 199.984375 1382.726562 199.984375 Z M 1375.039062 211.011719 C 1375.960938 211.011719 1376.699219 210.273438 1376.699219 209.351562 C 1376.699219 208.433594 1375.960938 207.695312 1375.039062 207.695312 C 1374.117188 207.695312 1373.382812 208.433594 1373.382812 209.351562 C 1373.382812 210.273438 1374.117188 211.011719 1375.039062 211.011719 Z M 1373.382812 193.800781 C 1373.382812 194.71875 1374.117188 195.457031 1375.039062 195.457031 C 1375.960938 195.457031 1376.699219 194.71875 1376.699219 193.800781 C 1376.699219 192.878906 1375.960938 192.140625 1375.039062 192.140625 C 1374.117188 192.140625 1373.382812 192.878906 1373.382812 193.800781 Z M 1382.460938 218.589844 C 1383.382812 218.589844 1384.121094 217.855469 1384.121094 216.933594 C 1384.121094 216.011719 1383.382812 215.273438 1382.460938 215.273438 C 1381.539062 215.273438 1380.804688 216.011719 1380.804688 216.933594 C 1380.804688 217.855469 1381.539062 218.589844 1382.460938 218.589844 Z M 1398.015625 215.273438 C 1397.09375 215.273438 1396.359375 216.011719 1396.359375 216.933594 C 1396.359375 217.855469 1397.09375 218.589844 1398.015625 218.589844 C 1398.9375 218.589844 1399.675781 217.855469 1399.675781 216.933594 C 1399.675781 216.011719 1398.9375 215.273438 1398.015625 215.273438 Z M 1390.304688 226.300781 C 1391.226562 226.300781 1391.960938 225.566406 1391.960938 224.644531 C 1391.960938 223.722656 1391.226562 222.988281 1390.304688 222.988281 C 1389.382812 222.988281 1388.648438 223.722656 1388.648438 224.644531 C 1388.648438 225.566406 1389.382812 226.300781 1390.304688 226.300781 Z M 1390.332031 207.40625 C 1389.410156 207.40625 1388.671875 208.144531 1388.671875 209.0625 C 1388.671875 209.984375 1389.410156 210.722656 1390.332031 210.722656 C 1391.253906 210.722656 1391.988281 209.984375 1391.988281 209.0625 C 1391.988281 208.144531 1391.253906 207.40625 1390.332031 207.40625 Z M 1397.726562 230.539062 C 1396.804688 230.539062 1396.070312 231.277344 1396.070312 232.199219 C 1396.070312 233.117188 1396.804688 233.855469 1397.726562 233.855469 C 1398.648438 233.855469 1399.382812 233.117188 1399.382812 232.199219 C 1399.382812 231.277344 1398.648438 230.539062 1397.726562 230.539062 Z M 1413.28125 230.539062 C 1412.359375 230.539062 1411.621094 231.277344 1411.621094 232.199219 C 1411.621094 233.117188 1412.359375 233.855469 1413.28125 233.855469 C 1414.203125 233.855469 1414.9375 233.117188 1414.9375 232.199219 C 1414.9375 231.277344 1414.203125 230.539062 1413.28125 230.539062 Z M 1405.597656 238.226562 C 1404.675781 238.226562 1403.9375 238.960938 1403.9375 239.882812 C 1403.9375 240.804688 1404.675781 241.542969 1405.597656 241.542969 C 1406.515625 241.542969 1407.253906 240.804688 1407.253906 239.882812 C 1407.253906 238.960938 1406.515625 238.226562 1405.597656 238.226562 Z M 1405.597656 222.671875 C 1404.675781 222.671875 1403.9375 223.40625 1403.9375 224.328125 C 1403.9375 225.25 1404.675781 225.988281 1405.597656 225.988281 C 1406.515625 225.988281 1407.253906 225.25 1407.253906 224.328125 C 1407.253906 223.40625 1406.515625 222.671875 1405.597656 222.671875 Z M 1412.726562 248.859375 C 1413.648438 248.859375 1414.386719 248.121094 1414.386719 247.199219 C 1414.386719 246.277344 1413.648438 245.542969 1412.726562 245.542969 C 1411.808594 245.542969 1411.070312 246.277344 1411.070312 247.199219 C 1411.070312 248.121094 1411.808594 248.859375 1412.726562 248.859375 Z M 1420.570312 253.226562 C 1419.648438 253.226562 1418.914062 253.964844 1418.914062 254.882812 C 1418.914062 255.804688 1419.648438 256.542969 1420.570312 256.542969 C 1421.492188 256.542969 1422.230469 255.804688 1422.230469 254.882812 C 1422.230469 253.964844 1421.492188 253.226562 1420.570312 253.226562 Z M 1420.597656 237.671875 C 1419.675781 237.671875 1418.9375 238.410156 1418.9375 239.332031 C 1418.9375 240.25 1419.675781 240.988281 1420.597656 240.988281 C 1421.519531 240.988281 1422.253906 240.25 1422.253906 239.332031 C 1422.253906 238.410156 1421.519531 237.671875 1420.597656 237.671875 Z M 1351.90625 218.589844 C 1352.828125 218.589844 1353.5625 217.855469 1353.5625 216.933594 C 1353.5625 216.011719 1352.828125 215.273438 1351.90625 215.273438 C 1350.984375 215.273438 1350.246094 216.011719 1350.246094 216.933594 C 1350.246094 217.855469 1350.984375 218.589844 1351.90625 218.589844 Z M 1367.460938 215.273438 C 1366.539062 215.273438 1365.800781 216.011719 1365.800781 216.933594 C 1365.800781 217.855469 1366.539062 218.589844 1367.460938 218.589844 C 1368.382812 218.589844 1369.117188 217.855469 1369.117188 216.933594 C 1369.117188 216.011719 1368.382812 215.273438 1367.460938 215.273438 Z M 1359.773438 226.300781 C 1360.695312 226.300781 1361.433594 225.566406 1361.433594 224.644531 C 1361.433594 223.722656 1360.695312 222.988281 1359.773438 222.988281 C 1358.855469 222.988281 1358.117188 223.722656 1358.117188 224.644531 C 1358.117188 225.566406 1358.855469 226.300781 1359.773438 226.300781 Z M 1358.117188 209.0625 C 1358.117188 209.984375 1358.855469 210.722656 1359.773438 210.722656 C 1360.695312 210.722656 1361.433594 209.984375 1361.433594 209.0625 C 1361.433594 208.144531 1360.695312 207.40625 1359.773438 207.40625 C 1358.855469 207.40625 1358.117188 208.144531 1358.117188 209.0625 Z M 1367.195312 233.882812 C 1368.117188 233.882812 1368.855469 233.144531 1368.855469 232.222656 C 1368.855469 231.304688 1368.117188 230.566406 1367.195312 230.566406 C 1366.277344 230.566406 1365.539062 231.304688 1365.539062 232.222656 C 1365.539062 233.144531 1366.277344 233.882812 1367.195312 233.882812 Z M 1382.726562 230.539062 C 1381.804688 230.539062 1381.066406 231.277344 1381.066406 232.199219 C 1381.066406 233.117188 1381.804688 233.855469 1382.726562 233.855469 C 1383.644531 233.855469 1384.382812 233.117188 1384.382812 232.199219 C 1384.382812 231.277344 1383.644531 230.539062 1382.726562 230.539062 Z M 1375.039062 241.566406 C 1375.960938 241.566406 1376.699219 240.832031 1376.699219 239.910156 C 1376.699219 238.988281 1375.960938 238.25 1375.039062 238.25 C 1374.117188 238.25 1373.382812 238.988281 1373.382812 239.910156 C 1373.382812 240.832031 1374.117188 241.566406 1375.039062 241.566406 Z M 1375.066406 222.671875 C 1374.144531 222.671875 1373.40625 223.40625 1373.40625 224.328125 C 1373.40625 225.25 1374.144531 225.988281 1375.066406 225.988281 C 1375.988281 225.988281 1376.722656 225.25 1376.722656 224.328125 C 1376.722656 223.433594 1375.960938 222.671875 1375.066406 222.671875 Z M 1382.460938 249.148438 C 1383.382812 249.148438 1384.121094 248.410156 1384.121094 247.488281 C 1384.121094 246.566406 1383.382812 245.832031 1382.460938 245.832031 C 1381.539062 245.832031 1380.804688 246.566406 1380.804688 247.488281 C 1380.804688 248.410156 1381.539062 249.148438 1382.460938 249.148438 Z M 1398.015625 245.804688 C 1397.09375 245.804688 1396.359375 246.542969 1396.359375 247.460938 C 1396.359375 248.382812 1397.09375 249.121094 1398.015625 249.121094 C 1398.9375 249.121094 1399.675781 248.382812 1399.675781 247.460938 C 1399.675781 246.542969 1398.9375 245.804688 1398.015625 245.804688 Z M 1390.332031 253.515625 C 1389.410156 253.515625 1388.671875 254.253906 1388.671875 255.175781 C 1388.671875 256.09375 1389.410156 256.832031 1390.332031 256.832031 C 1391.253906 256.832031 1391.988281 256.09375 1391.988281 255.175781 C 1391.988281 254.253906 1391.226562 253.515625 1390.332031 253.515625 Z M 1390.332031 237.960938 C 1389.410156 237.960938 1388.671875 238.699219 1388.671875 239.621094 C 1388.671875 240.539062 1389.410156 241.277344 1390.332031 241.277344 C 1391.253906 241.277344 1391.988281 240.539062 1391.988281 239.621094 C 1391.988281 238.699219 1391.253906 237.960938 1390.332031 237.960938 Z M 1397.464844 260.804688 C 1396.542969 260.804688 1395.804688 261.542969 1395.804688 262.464844 C 1395.804688 263.386719 1396.542969 264.121094 1397.464844 264.121094 C 1398.382812 264.121094 1399.121094 263.386719 1399.121094 262.464844 C 1399.121094 261.542969 1398.382812 260.804688 1397.464844 260.804688 Z M 1412.992188 260.804688 C 1412.070312 260.804688 1411.332031 261.542969 1411.332031 262.464844 C 1411.332031 263.386719 1412.070312 264.121094 1412.992188 264.121094 C 1413.914062 264.121094 1414.648438 263.386719 1414.648438 262.464844 C 1414.648438 261.542969 1413.914062 260.804688 1412.992188 260.804688 Z M 1405.304688 252.9375 C 1404.386719 252.9375 1403.648438 253.675781 1403.648438 254.59375 C 1403.648438 255.515625 1404.386719 256.253906 1405.304688 256.253906 C 1406.226562 256.253906 1406.964844 255.515625 1406.964844 254.59375 C 1406.964844 253.675781 1406.226562 252.9375 1405.304688 252.9375 Z M 1336.773438 233.75 C 1337.695312 233.75 1338.429688 233.015625 1338.429688 232.09375 C 1338.429688 231.171875 1337.695312 230.433594 1336.773438 230.433594 C 1335.851562 230.433594 1335.113281 231.171875 1335.113281 232.09375 C 1335.113281 233.015625 1335.851562 233.75 1336.773438 233.75 Z M 1352.300781 230.410156 C 1351.378906 230.410156 1350.644531 231.144531 1350.644531 232.066406 C 1350.644531 232.988281 1351.378906 233.722656 1352.300781 233.722656 C 1353.222656 233.722656 1353.957031 232.988281 1353.957031 232.066406 C 1353.957031 231.144531 1353.222656 230.410156 1352.300781 230.410156 Z M 1344.617188 241.4375 C 1345.535156 241.4375 1346.273438 240.699219 1346.273438 239.777344 C 1346.273438 238.855469 1345.535156 238.121094 1344.617188 238.121094 C 1343.695312 238.121094 1342.957031 238.855469 1342.957031 239.777344 C 1342.957031 240.699219 1343.695312 241.4375 1344.617188 241.4375 Z M 1342.957031 224.222656 C 1342.957031 225.144531 1343.695312 225.882812 1344.617188 225.882812 C 1345.535156 225.882812 1346.273438 225.144531 1346.273438 224.222656 C 1346.273438 223.300781 1345.535156 222.566406 1344.617188 222.566406 C 1343.695312 222.566406 1342.957031 223.300781 1342.957031 224.222656 Z M 1352.039062 249.015625 C 1352.957031 249.015625 1353.695312 248.277344 1353.695312 247.359375 C 1353.695312 246.4375 1352.957031 245.699219 1352.039062 245.699219 C 1351.117188 245.699219 1350.378906 246.4375 1350.378906 247.359375 C 1350.378906 248.277344 1351.117188 249.015625 1352.039062 249.015625 Z M 1367.589844 245.699219 C 1366.671875 245.699219 1365.933594 246.4375 1365.933594 247.359375 C 1365.933594 248.277344 1366.671875 249.015625 1367.589844 249.015625 C 1368.511719 249.015625 1369.25 248.277344 1369.25 247.359375 C 1369.25 246.4375 1368.511719 245.699219 1367.589844 245.699219 Z M 1359.90625 253.382812 C 1358.984375 253.382812 1358.25 254.121094 1358.25 255.042969 C 1358.25 255.964844 1358.984375 256.699219 1359.90625 256.699219 C 1360.828125 256.699219 1361.566406 255.964844 1361.566406 255.042969 C 1361.566406 254.121094 1360.800781 253.382812 1359.90625 253.382812 Z M 1359.90625 237.832031 C 1358.984375 237.832031 1358.25 238.566406 1358.25 239.488281 C 1358.25 240.410156 1358.984375 241.144531 1359.90625 241.144531 C 1360.828125 241.144531 1361.566406 240.410156 1361.566406 239.488281 C 1361.566406 238.566406 1360.828125 237.832031 1359.90625 237.832031 Z M 1367.300781 260.964844 C 1366.382812 260.964844 1365.644531 261.699219 1365.644531 262.621094 C 1365.644531 263.542969 1366.382812 264.28125 1367.300781 264.28125 C 1368.222656 264.28125 1368.960938 263.542969 1368.960938 262.621094 C 1368.988281 261.699219 1368.222656 260.964844 1367.300781 260.964844 Z M 1382.855469 260.964844 C 1381.933594 260.964844 1381.199219 261.699219 1381.199219 262.621094 C 1381.199219 263.542969 1381.933594 264.28125 1382.855469 264.28125 C 1383.777344 264.28125 1384.515625 263.542969 1384.515625 262.621094 C 1384.515625 261.699219 1383.777344 260.964844 1382.855469 260.964844 Z M 1375.171875 253.09375 C 1374.25 253.09375 1373.511719 253.832031 1373.511719 254.753906 C 1373.511719 255.675781 1374.25 256.410156 1375.171875 256.410156 C 1376.09375 256.410156 1376.828125 255.675781 1376.828125 254.753906 C 1376.855469 253.859375 1376.09375 253.09375 1375.171875 253.09375 Z M 1321.507812 249.015625 C 1322.429688 249.015625 1323.167969 248.277344 1323.167969 247.359375 C 1323.167969 246.4375 1322.429688 245.699219 1321.507812 245.699219 C 1320.585938 245.699219 1319.851562 246.4375 1319.851562 247.359375 C 1319.851562 248.277344 1320.585938 249.015625 1321.507812 249.015625 Z M 1337.035156 245.671875 C 1336.113281 245.671875 1335.378906 246.410156 1335.378906 247.332031 C 1335.378906 248.253906 1336.113281 248.988281 1337.035156 248.988281 C 1337.957031 248.988281 1338.695312 248.253906 1338.695312 247.332031 C 1338.695312 246.410156 1337.957031 245.671875 1337.035156 245.671875 Z M 1329.351562 253.382812 C 1328.429688 253.382812 1327.691406 254.121094 1327.691406 255.042969 C 1327.691406 255.964844 1328.429688 256.699219 1329.351562 256.699219 C 1330.273438 256.699219 1331.007812 255.964844 1331.007812 255.042969 C 1331.007812 254.121094 1330.273438 253.382812 1329.351562 253.382812 Z M 1329.351562 237.832031 C 1328.429688 237.832031 1327.691406 238.566406 1327.691406 239.488281 C 1327.691406 240.410156 1328.429688 241.144531 1329.351562 241.144531 C 1330.273438 241.144531 1331.007812 240.410156 1331.007812 239.488281 C 1331.007812 238.566406 1330.273438 237.832031 1329.351562 237.832031 Z M 1336.773438 260.964844 C 1335.851562 260.964844 1335.113281 261.699219 1335.113281 262.621094 C 1335.113281 263.542969 1335.851562 264.28125 1336.773438 264.28125 C 1337.695312 264.28125 1338.429688 263.542969 1338.429688 262.621094 C 1338.429688 261.699219 1337.695312 260.964844 1336.773438 260.964844 Z M 1352.328125 260.964844 C 1351.40625 260.964844 1350.667969 261.699219 1350.667969 262.621094 C 1350.667969 263.542969 1351.40625 264.28125 1352.328125 264.28125 C 1353.25 264.28125 1353.984375 263.542969 1353.984375 262.621094 C 1353.984375 261.699219 1353.25 260.964844 1352.328125 260.964844 Z M 1344.640625 253.09375 C 1343.722656 253.09375 1342.984375 253.832031 1342.984375 254.753906 C 1342.984375 255.675781 1343.722656 256.410156 1344.640625 256.410156 C 1345.5625 256.410156 1346.300781 255.675781 1346.300781 254.753906 C 1346.300781 253.832031 1345.5625 253.09375 1344.640625 253.09375 Z M 1306.347656 260.832031 C 1305.425781 260.832031 1304.691406 261.570312 1304.691406 262.492188 C 1304.691406 263.410156 1305.425781 264.148438 1306.347656 264.148438 C 1307.269531 264.148438 1308.007812 263.410156 1308.007812 262.492188 C 1308.007812 261.570312 1307.269531 260.832031 1306.347656 260.832031 Z M 1321.902344 260.832031 C 1320.980469 260.832031 1320.246094 261.570312 1320.246094 262.492188 C 1320.246094 263.410156 1320.980469 264.148438 1321.902344 264.148438 C 1322.824219 264.148438 1323.5625 263.410156 1323.5625 262.492188 C 1323.5625 261.570312 1322.824219 260.832031 1321.902344 260.832031 Z M 1314.21875 252.964844 C 1313.296875 252.964844 1312.558594 253.699219 1312.558594 254.621094 C 1312.558594 255.542969 1313.296875 256.28125 1314.21875 256.28125 C 1315.140625 256.28125 1315.875 255.542969 1315.875 254.621094 C 1315.875 253.699219 1315.140625 252.964844 1314.21875 252.964844 Z M 1396.015625 141.03125 C 1396.9375 141.03125 1397.675781 140.292969 1397.675781 139.371094 C 1397.675781 138.453125 1396.9375 137.714844 1396.015625 137.714844 C 1395.09375 137.714844 1394.359375 138.425781 1394.359375 139.347656 C 1394.359375 140.265625 1395.09375 141.03125 1396.015625 141.03125 Z M 1413.226562 139.347656 C 1413.226562 138.425781 1412.492188 137.6875 1411.570312 137.6875 C 1410.648438 137.6875 1409.886719 138.425781 1409.886719 139.347656 C 1409.886719 140.265625 1410.621094 141.003906 1411.542969 141.003906 C 1412.464844 141.003906 1413.226562 140.265625 1413.226562 139.347656 Z M 1405.542969 147.058594 C 1405.542969 146.136719 1404.804688 145.398438 1403.886719 145.398438 C 1402.964844 145.398438 1402.226562 146.136719 1402.226562 147.058594 C 1402.226562 147.980469 1402.964844 148.714844 1403.886719 148.714844 C 1404.804688 148.714844 1405.542969 147.953125 1405.542969 147.058594 Z M 1365.589844 140.898438 C 1366.511719 140.898438 1367.25 140.160156 1367.25 139.242188 C 1367.25 138.320312 1366.511719 137.582031 1365.589844 137.582031 C 1364.671875 137.582031 1363.933594 138.320312 1363.933594 139.242188 C 1363.933594 140.136719 1364.671875 140.898438 1365.589844 140.898438 Z M 1381.144531 140.898438 C 1382.066406 140.898438 1382.804688 140.160156 1382.804688 139.242188 C 1382.804688 138.320312 1382.066406 137.582031 1381.144531 137.582031 C 1380.226562 137.582031 1379.488281 138.320312 1379.488281 139.242188 C 1379.460938 140.136719 1380.226562 140.898438 1381.144531 140.898438 Z M 1373.433594 148.585938 C 1374.355469 148.585938 1375.09375 147.847656 1375.09375 146.925781 C 1375.09375 146.003906 1374.355469 145.269531 1373.433594 145.269531 C 1372.511719 145.269531 1371.777344 146.003906 1371.777344 146.925781 C 1371.777344 147.847656 1372.511719 148.585938 1373.433594 148.585938 Z M 1380.855469 156.164062 C 1381.777344 156.164062 1382.515625 155.425781 1382.515625 154.503906 C 1382.515625 153.585938 1381.777344 152.847656 1380.855469 152.847656 C 1379.933594 152.847656 1379.199219 153.585938 1379.199219 154.503906 C 1379.199219 155.425781 1379.933594 156.164062 1380.855469 156.164062 Z M 1398.070312 154.503906 C 1398.070312 153.585938 1397.332031 152.847656 1396.410156 152.847656 C 1395.488281 152.847656 1394.753906 153.585938 1394.753906 154.503906 C 1394.753906 155.425781 1395.488281 156.164062 1396.410156 156.164062 C 1397.332031 156.164062 1398.070312 155.425781 1398.070312 154.503906 Z M 1390.382812 162.191406 C 1390.382812 161.269531 1389.648438 160.53125 1388.726562 160.53125 C 1387.804688 160.53125 1387.066406 161.269531 1387.066406 162.191406 C 1387.066406 163.113281 1387.804688 163.847656 1388.726562 163.847656 C 1389.648438 163.847656 1390.382812 163.113281 1390.382812 162.191406 Z M 1388.726562 148.292969 C 1389.648438 148.292969 1390.382812 147.558594 1390.382812 146.636719 C 1390.382812 145.714844 1389.648438 144.976562 1388.726562 144.976562 C 1387.804688 144.976562 1387.066406 145.714844 1387.066406 146.636719 C 1387.066406 147.558594 1387.804688 148.292969 1388.726562 148.292969 Z M 1335.035156 140.898438 C 1335.957031 140.898438 1336.695312 140.160156 1336.695312 139.242188 C 1336.695312 138.320312 1335.957031 137.554688 1335.035156 137.554688 C 1334.113281 137.554688 1333.378906 138.292969 1333.378906 139.214844 C 1333.378906 140.136719 1334.113281 140.898438 1335.035156 140.898438 Z M 1350.589844 140.898438 C 1351.511719 140.898438 1352.25 140.160156 1352.25 139.242188 C 1352.25 138.320312 1351.511719 137.554688 1350.589844 137.554688 C 1349.667969 137.554688 1348.933594 138.292969 1348.933594 139.214844 C 1348.933594 140.136719 1349.667969 140.898438 1350.589844 140.898438 Z M 1342.90625 148.585938 C 1343.824219 148.585938 1344.5625 147.847656 1344.5625 146.925781 C 1344.5625 146.003906 1343.824219 145.269531 1342.90625 145.269531 C 1341.984375 145.269531 1341.246094 146.003906 1341.246094 146.925781 C 1341.246094 147.847656 1341.984375 148.585938 1342.90625 148.585938 Z M 1350.328125 156.164062 C 1351.246094 156.164062 1351.984375 155.425781 1351.984375 154.503906 C 1351.984375 153.585938 1351.246094 152.847656 1350.328125 152.847656 C 1349.40625 152.847656 1348.667969 153.585938 1348.667969 154.503906 C 1348.667969 155.425781 1349.40625 156.164062 1350.328125 156.164062 Z M 1365.855469 152.820312 C 1364.933594 152.820312 1364.195312 153.558594 1364.195312 154.480469 C 1364.195312 155.402344 1364.933594 156.136719 1365.855469 156.136719 C 1366.777344 156.136719 1367.511719 155.402344 1367.511719 154.480469 C 1367.511719 153.558594 1366.777344 152.820312 1365.855469 152.820312 Z M 1358.167969 163.847656 C 1359.089844 163.847656 1359.828125 163.113281 1359.828125 162.191406 C 1359.828125 161.269531 1359.089844 160.53125 1358.167969 160.53125 C 1357.25 160.53125 1356.511719 161.269531 1356.511719 162.191406 C 1356.511719 163.113281 1357.25 163.847656 1358.167969 163.847656 Z M 1358.167969 148.292969 C 1359.089844 148.292969 1359.828125 147.558594 1359.828125 146.636719 C 1359.828125 145.714844 1359.089844 144.976562 1358.167969 144.976562 C 1357.25 144.976562 1356.511719 145.714844 1356.511719 146.636719 C 1356.511719 147.558594 1357.25 148.292969 1358.167969 148.292969 Z M 1365.589844 171.429688 C 1366.511719 171.429688 1367.25 170.691406 1367.25 169.769531 C 1367.25 168.847656 1366.511719 168.113281 1365.589844 168.113281 C 1364.671875 168.113281 1363.933594 168.847656 1363.933594 169.769531 C 1363.933594 170.691406 1364.671875 171.429688 1365.589844 171.429688 Z M 1382.804688 169.769531 C 1382.804688 168.847656 1382.066406 168.113281 1381.144531 168.113281 C 1380.226562 168.113281 1379.488281 168.847656 1379.488281 169.769531 C 1379.488281 170.691406 1380.226562 171.429688 1381.144531 171.429688 C 1382.066406 171.429688 1382.804688 170.691406 1382.804688 169.769531 Z M 1375.117188 177.457031 C 1375.117188 176.535156 1374.382812 175.796875 1373.460938 175.796875 C 1372.539062 175.796875 1371.804688 176.535156 1371.804688 177.457031 C 1371.804688 178.375 1372.539062 179.113281 1373.460938 179.113281 C 1374.382812 179.113281 1375.117188 178.375 1375.117188 177.457031 Z M 1373.460938 160.242188 C 1372.539062 160.242188 1371.804688 160.980469 1371.804688 161.902344 C 1371.804688 162.824219 1372.539062 163.558594 1373.460938 163.558594 C 1374.382812 163.558594 1375.117188 162.824219 1375.117188 161.902344 C 1375.117188 160.980469 1374.382812 160.242188 1373.460938 160.242188 Z M 1304.902344 141.058594 C 1305.820312 141.058594 1306.558594 140.320312 1306.558594 139.398438 C 1306.558594 138.476562 1305.820312 137.742188 1304.902344 137.742188 C 1303.980469 137.742188 1303.242188 138.476562 1303.242188 139.398438 C 1303.242188 140.320312 1303.980469 141.058594 1304.902344 141.058594 Z M 1320.457031 141.058594 C 1321.375 141.058594 1322.113281 140.320312 1322.113281 139.398438 C 1322.113281 138.476562 1321.375 137.742188 1320.457031 137.742188 C 1319.535156 137.742188 1318.796875 138.476562 1318.796875 139.398438 C 1318.796875 140.320312 1319.535156 141.058594 1320.457031 141.058594 Z M 1312.769531 148.742188 C 1313.691406 148.742188 1314.429688 148.003906 1314.429688 147.082031 C 1314.429688 146.164062 1313.691406 145.425781 1312.769531 145.425781 C 1311.847656 145.425781 1311.113281 146.164062 1311.113281 147.082031 C 1311.085938 148.003906 1311.847656 148.742188 1312.769531 148.742188 Z M 1319.902344 156.03125 C 1320.824219 156.03125 1321.5625 155.296875 1321.5625 154.375 C 1321.5625 153.453125 1320.824219 152.714844 1319.902344 152.714844 C 1318.980469 152.714844 1318.246094 153.453125 1318.246094 154.375 C 1318.246094 155.296875 1318.980469 156.03125 1319.902344 156.03125 Z M 1335.429688 152.714844 C 1334.507812 152.714844 1333.773438 153.453125 1333.773438 154.375 C 1333.773438 155.296875 1334.507812 156.03125 1335.429688 156.03125 C 1336.351562 156.03125 1337.089844 155.296875 1337.089844 154.375 C 1337.089844 153.453125 1336.351562 152.714844 1335.429688 152.714844 Z M 1327.746094 163.71875 C 1328.667969 163.71875 1329.402344 162.980469 1329.402344 162.058594 C 1329.402344 161.136719 1328.667969 160.402344 1327.746094 160.402344 C 1326.824219 160.402344 1326.085938 161.136719 1326.085938 162.058594 C 1326.085938 162.980469 1326.824219 163.71875 1327.746094 163.71875 Z M 1327.746094 148.164062 C 1328.667969 148.164062 1329.402344 147.425781 1329.402344 146.503906 C 1329.402344 145.582031 1328.667969 144.847656 1327.746094 144.847656 C 1326.824219 144.847656 1326.085938 145.582031 1326.085938 146.503906 C 1326.085938 147.425781 1326.851562 148.164062 1327.746094 148.164062 Z M 1335.167969 171.324219 C 1336.089844 171.324219 1336.824219 170.585938 1336.824219 169.664062 C 1336.824219 168.742188 1336.089844 168.007812 1335.167969 168.007812 C 1334.246094 168.007812 1333.507812 168.742188 1333.507812 169.664062 C 1333.507812 170.585938 1334.246094 171.324219 1335.167969 171.324219 Z M 1350.722656 167.980469 C 1349.800781 167.980469 1349.0625 168.71875 1349.0625 169.640625 C 1349.0625 170.558594 1349.800781 171.296875 1350.722656 171.296875 C 1351.644531 171.296875 1352.378906 170.558594 1352.378906 169.640625 C 1352.378906 168.71875 1351.644531 167.980469 1350.722656 167.980469 Z M 1343.011719 179.007812 C 1343.929688 179.007812 1344.667969 178.269531 1344.667969 177.351562 C 1344.667969 176.429688 1343.929688 175.691406 1343.011719 175.691406 C 1342.089844 175.691406 1341.351562 176.429688 1341.351562 177.351562 C 1341.351562 178.269531 1342.117188 179.007812 1343.011719 179.007812 Z M 1343.035156 160.113281 C 1342.117188 160.113281 1341.378906 160.847656 1341.378906 161.769531 C 1341.378906 162.691406 1342.117188 163.425781 1343.035156 163.425781 C 1343.957031 163.425781 1344.695312 162.691406 1344.695312 161.769531 C 1344.695312 160.847656 1343.957031 160.113281 1343.035156 160.113281 Z M 1350.433594 186.589844 C 1351.351562 186.589844 1352.089844 185.851562 1352.089844 184.929688 C 1352.089844 184.007812 1351.351562 183.273438 1350.433594 183.273438 C 1349.511719 183.273438 1348.773438 184.007812 1348.773438 184.929688 C 1348.773438 185.851562 1349.511719 186.589844 1350.433594 186.589844 Z M 1367.644531 184.929688 C 1367.644531 184.007812 1366.90625 183.273438 1365.988281 183.273438 C 1365.066406 183.273438 1364.328125 184.007812 1364.328125 184.929688 C 1364.328125 185.851562 1365.066406 186.589844 1365.988281 186.589844 C 1366.90625 186.589844 1367.644531 185.851562 1367.644531 184.929688 Z M 1359.960938 192.613281 C 1359.960938 191.695312 1359.222656 190.957031 1358.300781 190.957031 C 1357.378906 190.957031 1356.644531 191.695312 1356.644531 192.613281 C 1356.644531 193.535156 1357.378906 194.273438 1358.300781 194.273438 C 1359.222656 194.273438 1359.960938 193.535156 1359.960938 192.613281 Z M 1358.300781 175.402344 C 1357.378906 175.402344 1356.644531 176.140625 1356.644531 177.0625 C 1356.644531 177.980469 1357.378906 178.71875 1358.300781 178.71875 C 1359.222656 178.71875 1359.960938 177.980469 1359.960938 177.0625 C 1359.960938 176.140625 1359.222656 175.402344 1358.300781 175.402344 Z M 1305.191406 152.980469 C 1304.269531 152.980469 1303.53125 153.714844 1303.53125 154.636719 C 1303.53125 155.558594 1304.269531 156.296875 1305.191406 156.296875 C 1306.113281 156.296875 1306.847656 155.558594 1306.847656 154.636719 C 1306.847656 153.714844 1306.113281 152.980469 1305.191406 152.980469 Z M 1297.480469 160.691406 C 1296.558594 160.691406 1295.820312 161.425781 1295.820312 162.347656 C 1295.820312 163.269531 1296.558594 164.007812 1297.480469 164.007812 C 1298.402344 164.007812 1299.136719 163.269531 1299.136719 162.347656 C 1299.136719 161.425781 1298.402344 160.691406 1297.480469 160.691406 Z M 1297.503906 145.109375 C 1296.585938 145.109375 1295.847656 145.847656 1295.847656 146.769531 C 1295.847656 147.6875 1296.585938 148.425781 1297.503906 148.425781 C 1298.425781 148.425781 1299.164062 147.6875 1299.164062 146.769531 C 1299.164062 145.847656 1298.425781 145.109375 1297.503906 145.109375 Z M 1304.613281 171.296875 C 1305.53125 171.296875 1306.269531 170.558594 1306.269531 169.640625 C 1306.269531 168.71875 1305.53125 167.980469 1304.613281 167.980469 C 1303.691406 167.980469 1302.953125 168.71875 1302.953125 169.640625 C 1302.953125 170.558594 1303.714844 171.296875 1304.613281 171.296875 Z M 1320.164062 167.980469 C 1319.246094 167.980469 1318.507812 168.71875 1318.507812 169.640625 C 1318.507812 170.558594 1319.246094 171.296875 1320.164062 171.296875 C 1321.085938 171.296875 1321.824219 170.558594 1321.824219 169.640625 C 1321.824219 168.71875 1321.085938 167.980469 1320.164062 167.980469 Z M 1312.480469 179.007812 C 1313.402344 179.007812 1314.140625 178.269531 1314.140625 177.351562 C 1314.140625 176.429688 1313.402344 175.691406 1312.480469 175.691406 C 1311.558594 175.691406 1310.824219 176.429688 1310.824219 177.351562 C 1310.824219 178.269531 1311.558594 179.007812 1312.480469 179.007812 Z M 1312.480469 163.453125 C 1313.402344 163.453125 1314.140625 162.71875 1314.140625 161.796875 C 1314.140625 160.875 1313.402344 160.136719 1312.480469 160.136719 C 1311.558594 160.136719 1310.824219 160.875 1310.824219 161.796875 C 1310.824219 162.71875 1311.558594 163.453125 1312.480469 163.453125 Z M 1319.902344 186.589844 C 1320.824219 186.589844 1321.5625 185.851562 1321.5625 184.929688 C 1321.5625 184.007812 1320.824219 183.273438 1319.902344 183.273438 C 1318.980469 183.273438 1318.246094 184.007812 1318.246094 184.929688 C 1318.246094 185.851562 1318.980469 186.589844 1319.902344 186.589844 Z M 1335.457031 183.246094 C 1334.535156 183.246094 1333.796875 183.984375 1333.796875 184.902344 C 1333.796875 185.824219 1334.535156 186.5625 1335.457031 186.5625 C 1336.378906 186.5625 1337.113281 185.824219 1337.113281 184.902344 C 1337.113281 183.984375 1336.351562 183.246094 1335.457031 183.246094 Z M 1327.746094 194.273438 C 1328.667969 194.273438 1329.402344 193.535156 1329.402344 192.613281 C 1329.402344 191.695312 1328.667969 190.957031 1327.746094 190.957031 C 1326.824219 190.957031 1326.085938 191.695312 1326.085938 192.613281 C 1326.085938 193.535156 1326.824219 194.273438 1327.746094 194.273438 Z M 1327.773438 175.375 C 1326.851562 175.375 1326.113281 176.113281 1326.113281 177.035156 C 1326.113281 177.957031 1326.851562 178.691406 1327.773438 178.691406 C 1328.691406 178.691406 1329.429688 177.957031 1329.429688 177.035156 C 1329.429688 176.113281 1328.691406 175.375 1327.773438 175.375 Z M 1335.167969 201.851562 C 1336.089844 201.851562 1336.824219 201.117188 1336.824219 200.195312 C 1336.824219 199.273438 1336.089844 198.535156 1335.167969 198.535156 C 1334.246094 198.535156 1333.507812 199.273438 1333.507812 200.195312 C 1333.507812 201.117188 1334.246094 201.851562 1335.167969 201.851562 Z M 1352.378906 200.195312 C 1352.378906 199.273438 1351.644531 198.535156 1350.722656 198.535156 C 1349.800781 198.535156 1349.0625 199.273438 1349.0625 200.195312 C 1349.0625 201.117188 1349.800781 201.851562 1350.722656 201.851562 C 1351.644531 201.851562 1352.378906 201.117188 1352.378906 200.195312 Z M 1344.695312 207.878906 C 1344.695312 206.957031 1343.957031 206.222656 1343.035156 206.222656 C 1342.117188 206.222656 1341.378906 206.957031 1341.378906 207.878906 C 1341.378906 208.800781 1342.117188 209.539062 1343.035156 209.539062 C 1343.957031 209.539062 1344.695312 208.800781 1344.695312 207.878906 Z M 1343.035156 190.667969 C 1342.117188 190.667969 1341.378906 191.402344 1341.378906 192.324219 C 1341.378906 193.246094 1342.117188 193.984375 1343.035156 193.984375 C 1343.957031 193.984375 1344.695312 193.246094 1344.695312 192.324219 C 1344.695312 191.402344 1343.957031 190.667969 1343.035156 190.667969 Z M 1305.03125 183.113281 C 1304.113281 183.113281 1303.375 183.851562 1303.375 184.773438 C 1303.375 185.691406 1304.113281 186.429688 1305.03125 186.429688 C 1305.953125 186.429688 1306.691406 185.691406 1306.691406 184.773438 C 1306.691406 183.878906 1305.953125 183.113281 1305.03125 183.113281 Z M 1297.320312 194.140625 C 1298.242188 194.140625 1298.980469 193.40625 1298.980469 192.484375 C 1298.980469 191.5625 1298.242188 190.824219 1297.320312 190.824219 C 1296.398438 190.824219 1295.664062 191.5625 1295.664062 192.484375 C 1295.664062 193.40625 1296.398438 194.140625 1297.320312 194.140625 Z M 1297.347656 178.585938 C 1298.269531 178.585938 1299.003906 177.851562 1299.003906 176.929688 C 1299.003906 176.007812 1298.269531 175.269531 1297.347656 175.269531 C 1296.425781 175.269531 1295.691406 176.007812 1295.691406 176.929688 C 1295.691406 177.851562 1296.425781 178.585938 1297.347656 178.585938 Z M 1304.742188 201.722656 C 1305.664062 201.722656 1306.402344 200.984375 1306.402344 200.0625 C 1306.402344 199.140625 1305.664062 198.40625 1304.742188 198.40625 C 1303.820312 198.40625 1303.085938 199.140625 1303.085938 200.0625 C 1303.085938 200.984375 1303.820312 201.722656 1304.742188 201.722656 Z M 1320.296875 198.40625 C 1319.375 198.40625 1318.640625 199.140625 1318.640625 200.0625 C 1318.640625 200.984375 1319.375 201.722656 1320.296875 201.722656 C 1321.21875 201.722656 1321.957031 200.984375 1321.957031 200.0625 C 1321.957031 199.140625 1321.21875 198.40625 1320.296875 198.40625 Z M 1312.613281 209.433594 C 1313.535156 209.433594 1314.269531 208.695312 1314.269531 207.773438 C 1314.269531 206.851562 1313.535156 206.117188 1312.613281 206.117188 C 1311.691406 206.117188 1310.953125 206.851562 1310.953125 207.773438 C 1310.929688 208.667969 1311.691406 209.433594 1312.613281 209.433594 Z M 1312.613281 190.535156 C 1311.691406 190.535156 1310.953125 191.273438 1310.953125 192.195312 C 1310.953125 193.113281 1311.691406 193.851562 1312.613281 193.851562 C 1313.535156 193.851562 1314.269531 193.113281 1314.269531 192.195312 C 1314.269531 191.273438 1313.535156 190.535156 1312.613281 190.535156 Z M 1320.035156 217.011719 C 1320.957031 217.011719 1321.691406 216.273438 1321.691406 215.355469 C 1321.691406 214.433594 1320.957031 213.695312 1320.035156 213.695312 C 1319.113281 213.695312 1318.375 214.433594 1318.375 215.355469 C 1318.375 216.273438 1319.113281 217.011719 1320.035156 217.011719 Z M 1337.246094 215.328125 C 1337.246094 214.40625 1336.507812 213.667969 1335.589844 213.667969 C 1334.667969 213.667969 1333.929688 214.40625 1333.929688 215.328125 C 1333.929688 216.25 1334.667969 216.984375 1335.589844 216.984375 C 1336.507812 216.984375 1337.246094 216.25 1337.246094 215.328125 Z M 1329.535156 223.039062 C 1329.535156 222.117188 1328.796875 221.382812 1327.878906 221.382812 C 1326.957031 221.382812 1326.21875 222.117188 1326.21875 223.039062 C 1326.21875 223.960938 1326.957031 224.695312 1327.878906 224.695312 C 1328.796875 224.695312 1329.535156 223.960938 1329.535156 223.039062 Z M 1327.878906 205.800781 C 1326.957031 205.800781 1326.21875 206.539062 1326.21875 207.457031 C 1326.21875 208.378906 1326.957031 209.117188 1327.878906 209.117188 C 1328.796875 209.117188 1329.535156 208.378906 1329.535156 207.457031 C 1329.535156 206.539062 1328.796875 205.800781 1327.878906 205.800781 Z M 1305.03125 213.667969 C 1304.113281 213.667969 1303.375 214.40625 1303.375 215.328125 C 1303.375 216.25 1304.113281 216.984375 1305.03125 216.984375 C 1305.953125 216.984375 1306.691406 216.25 1306.691406 215.328125 C 1306.691406 214.40625 1305.953125 213.667969 1305.03125 213.667969 Z M 1297.320312 224.695312 C 1298.242188 224.695312 1298.980469 223.960938 1298.980469 223.039062 C 1298.980469 222.117188 1298.242188 221.382812 1297.320312 221.382812 C 1296.398438 221.382812 1295.664062 222.117188 1295.664062 223.039062 C 1295.664062 223.960938 1296.425781 224.695312 1297.320312 224.695312 Z M 1297.347656 205.800781 C 1296.425781 205.800781 1295.691406 206.539062 1295.691406 207.457031 C 1295.691406 208.378906 1296.425781 209.117188 1297.347656 209.117188 C 1298.269531 209.117188 1299.003906 208.378906 1299.003906 207.457031 C 1299.003906 206.539062 1298.269531 205.800781 1297.347656 205.800781 Z M 1304.742188 232.277344 C 1305.664062 232.277344 1306.402344 231.539062 1306.402344 230.617188 C 1306.402344 229.699219 1305.664062 228.960938 1304.742188 228.960938 C 1303.820312 228.960938 1303.085938 229.699219 1303.085938 230.617188 C 1303.085938 231.539062 1303.820312 232.277344 1304.742188 232.277344 Z M 1321.957031 230.617188 C 1321.957031 229.699219 1321.21875 228.960938 1320.296875 228.960938 C 1319.375 228.960938 1318.640625 229.699219 1318.640625 230.617188 C 1318.640625 231.539062 1319.375 232.277344 1320.296875 232.277344 C 1321.21875 232.277344 1321.957031 231.539062 1321.957031 230.617188 Z M 1314.269531 238.304688 C 1314.269531 237.382812 1313.535156 236.644531 1312.613281 236.644531 C 1311.691406 236.644531 1310.953125 237.382812 1310.953125 238.304688 C 1310.953125 239.226562 1311.691406 239.960938 1312.613281 239.960938 C 1313.535156 239.960938 1314.269531 239.226562 1314.269531 238.304688 Z M 1312.613281 221.089844 C 1311.691406 221.089844 1310.953125 221.828125 1310.953125 222.75 C 1310.953125 223.671875 1311.691406 224.40625 1312.613281 224.40625 C 1313.535156 224.40625 1314.269531 223.671875 1314.269531 222.75 C 1314.269531 221.828125 1313.535156 221.089844 1312.613281 221.089844 Z M 1306.824219 245.753906 C 1306.824219 244.832031 1306.085938 244.09375 1305.164062 244.09375 C 1304.242188 244.09375 1303.507812 244.832031 1303.507812 245.753906 C 1303.507812 246.671875 1304.242188 247.410156 1305.164062 247.410156 C 1306.058594 247.4375 1306.824219 246.671875 1306.824219 245.753906 Z M 1297.453125 251.777344 C 1296.53125 251.777344 1295.792969 252.515625 1295.792969 253.4375 C 1295.792969 254.359375 1296.53125 255.09375 1297.453125 255.09375 C 1298.375 255.09375 1299.109375 254.359375 1299.109375 253.4375 C 1299.136719 252.542969 1298.375 251.777344 1297.453125 251.777344 Z M 1297.480469 236.226562 C 1296.558594 236.226562 1295.820312 236.960938 1295.820312 237.882812 C 1295.820312 238.804688 1296.558594 239.539062 1297.480469 239.539062 C 1298.402344 239.539062 1299.136719 238.804688 1299.136719 237.882812 C 1299.136719 236.960938 1298.402344 236.226562 1297.480469 236.226562 Z M 1297.480469 236.226562"/></g><g clip-path="url(#h)"><path fill="#E3D7CF" d="M 125.695312 588.664062 C 126.617188 588.664062 127.355469 589.402344 127.355469 590.324219 C 127.355469 591.246094 126.617188 591.980469 125.695312 591.980469 C 124.777344 591.980469 124.039062 591.246094 124.039062 590.324219 C 124.039062 589.402344 124.777344 588.664062 125.695312 588.664062 Z M 133.539062 599.691406 C 134.460938 599.691406 135.199219 598.957031 135.199219 598.035156 C 135.199219 597.113281 134.460938 596.375 133.539062 596.375 C 132.617188 596.375 131.882812 597.113281 131.882812 598.035156 C 131.882812 598.957031 132.617188 599.691406 133.539062 599.691406 Z M 133.566406 584.136719 C 134.488281 584.136719 135.222656 583.402344 135.222656 582.480469 C 135.222656 581.558594 134.488281 580.824219 133.566406 580.824219 C 132.644531 580.824219 131.90625 581.558594 131.90625 582.480469 C 131.90625 583.402344 132.644531 584.136719 133.566406 584.136719 Z M 108.878906 605.484375 C 108.878906 606.402344 109.617188 607.140625 110.539062 607.140625 C 111.457031 607.140625 112.195312 606.402344 112.195312 605.484375 C 112.195312 604.5625 111.457031 603.824219 110.539062 603.824219 C 109.617188 603.824219 108.878906 604.5625 108.878906 605.484375 Z M 126.089844 603.824219 C 125.171875 603.824219 124.433594 604.5625 124.433594 605.484375 C 124.433594 606.402344 125.171875 607.140625 126.089844 607.140625 C 127.011719 607.140625 127.75 606.402344 127.75 605.484375 C 127.75 604.5625 127.011719 603.824219 126.089844 603.824219 Z M 118.40625 614.851562 C 119.328125 614.851562 120.066406 614.117188 120.066406 613.195312 C 120.066406 612.273438 119.328125 611.535156 118.40625 611.535156 C 117.484375 611.535156 116.75 612.273438 116.75 613.195312 C 116.75 614.117188 117.484375 614.851562 118.40625 614.851562 Z M 116.75 597.613281 C 116.75 598.535156 117.484375 599.273438 118.40625 599.273438 C 119.328125 599.273438 120.066406 598.535156 120.066406 597.613281 C 120.066406 596.691406 119.328125 595.957031 118.40625 595.957031 C 117.484375 595.957031 116.75 596.691406 116.75 597.613281 Z M 125.828125 622.433594 C 126.75 622.433594 127.488281 621.695312 127.488281 620.773438 C 127.488281 619.851562 126.75 619.117188 125.828125 619.117188 C 124.90625 619.117188 124.171875 619.851562 124.171875 620.773438 C 124.171875 621.695312 124.90625 622.433594 125.828125 622.433594 Z M 135.328125 628.457031 C 135.328125 627.539062 134.59375 626.800781 133.671875 626.800781 C 132.75 626.800781 132.011719 627.539062 132.011719 628.457031 C 132.011719 629.378906 132.75 630.117188 133.671875 630.117188 C 134.59375 630.117188 135.328125 629.378906 135.328125 628.457031 Z M 133.671875 611.21875 C 132.75 611.21875 132.011719 611.957031 132.011719 612.878906 C 132.011719 613.800781 132.75 614.535156 133.671875 614.535156 C 134.59375 614.535156 135.328125 613.800781 135.328125 612.878906 C 135.328125 611.957031 134.59375 611.21875 133.671875 611.21875 Z M 95.273438 622.40625 C 96.195312 622.40625 96.929688 621.667969 96.929688 620.746094 C 96.929688 619.828125 96.195312 619.089844 95.273438 619.089844 C 94.351562 619.089844 93.613281 619.828125 93.613281 620.746094 C 93.613281 621.667969 94.351562 622.40625 95.273438 622.40625 Z M 110.828125 619.089844 C 109.90625 619.089844 109.167969 619.828125 109.167969 620.746094 C 109.167969 621.667969 109.90625 622.40625 110.828125 622.40625 C 111.746094 622.40625 112.484375 621.667969 112.484375 620.746094 C 112.484375 619.828125 111.746094 619.089844 110.828125 619.089844 Z M 103.140625 630.117188 C 104.0625 630.117188 104.800781 629.378906 104.800781 628.457031 C 104.800781 627.539062 104.0625 626.800781 103.140625 626.800781 C 102.222656 626.800781 101.484375 627.539062 101.484375 628.457031 C 101.457031 629.355469 102.222656 630.117188 103.140625 630.117188 Z M 101.484375 612.878906 C 101.484375 613.800781 102.222656 614.535156 103.140625 614.535156 C 104.0625 614.535156 104.800781 613.800781 104.800781 612.878906 C 104.800781 611.957031 104.0625 611.21875 103.140625 611.21875 C 102.222656 611.21875 101.484375 611.957031 101.484375 612.878906 Z M 110.539062 637.695312 C 111.457031 637.695312 112.195312 636.960938 112.195312 636.039062 C 112.195312 635.117188 111.457031 634.378906 110.539062 634.378906 C 109.617188 634.378906 108.878906 635.117188 108.878906 636.039062 C 108.878906 636.960938 109.640625 637.695312 110.539062 637.695312 Z M 126.089844 634.355469 C 125.171875 634.355469 124.433594 635.089844 124.433594 636.011719 C 124.433594 636.933594 125.171875 637.671875 126.089844 637.671875 C 127.011719 637.671875 127.75 636.933594 127.75 636.011719 C 127.75 635.089844 127.011719 634.355469 126.089844 634.355469 Z M 118.40625 642.066406 C 117.484375 642.066406 116.75 642.800781 116.75 643.722656 C 116.75 644.644531 117.484375 645.382812 118.40625 645.382812 C 119.328125 645.382812 120.066406 644.644531 120.066406 643.722656 C 120.066406 642.800781 119.328125 642.066406 118.40625 642.066406 Z M 118.40625 626.484375 C 117.484375 626.484375 116.75 627.222656 116.75 628.144531 C 116.75 629.0625 117.484375 629.800781 118.40625 629.800781 C 119.328125 629.800781 120.066406 629.0625 120.066406 628.144531 C 120.066406 627.222656 119.328125 626.484375 118.40625 626.484375 Z M 125.828125 649.644531 C 124.90625 649.644531 124.171875 650.382812 124.171875 651.304688 C 124.171875 652.222656 124.90625 652.960938 125.828125 652.960938 C 126.75 652.960938 127.488281 652.222656 127.488281 651.304688 C 127.488281 650.382812 126.75 649.644531 125.828125 649.644531 Z M 133.671875 657.332031 C 132.75 657.332031 132.011719 658.066406 132.011719 658.988281 C 132.011719 659.910156 132.75 660.644531 133.671875 660.644531 C 134.59375 660.644531 135.328125 659.910156 135.328125 658.988281 C 135.328125 658.066406 134.59375 657.332031 133.671875 657.332031 Z M 133.699219 645.09375 C 134.617188 645.09375 135.355469 644.355469 135.355469 643.433594 C 135.355469 642.511719 134.617188 641.777344 133.699219 641.777344 C 132.777344 641.777344 132.039062 642.511719 132.039062 643.433594 C 132.039062 644.355469 132.777344 645.09375 133.699219 645.09375 Z M 80.140625 637.566406 C 81.0625 637.566406 81.796875 636.828125 81.796875 635.90625 C 81.796875 634.984375 81.0625 634.25 80.140625 634.25 C 79.21875 634.25 78.480469 634.984375 78.480469 635.90625 C 78.480469 636.828125 79.21875 637.566406 80.140625 637.566406 Z M 95.667969 634.222656 C 94.746094 634.222656 94.007812 634.960938 94.007812 635.878906 C 94.007812 636.800781 94.746094 637.539062 95.667969 637.539062 C 96.589844 637.539062 97.324219 636.800781 97.324219 635.878906 C 97.324219 634.960938 96.589844 634.222656 95.667969 634.222656 Z M 87.984375 645.25 C 88.902344 645.25 89.640625 644.511719 89.640625 643.59375 C 89.640625 642.671875 88.902344 641.933594 87.984375 641.933594 C 87.0625 641.933594 86.324219 642.671875 86.324219 643.59375 C 86.324219 644.511719 87.0625 645.25 87.984375 645.25 Z M 86.324219 628.039062 C 86.324219 628.957031 87.0625 629.695312 87.980469 629.695312 C 88.902344 629.695312 89.640625 628.957031 89.640625 628.039062 C 89.640625 627.117188 88.902344 626.378906 87.980469 626.378906 C 87.0625 626.378906 86.324219 627.117188 86.324219 628.039062 Z M 95.402344 652.828125 C 96.324219 652.828125 97.0625 652.09375 97.0625 651.171875 C 97.0625 650.25 96.324219 649.515625 95.402344 649.515625 C 94.484375 649.515625 93.746094 650.25 93.746094 651.171875 C 93.746094 652.09375 94.484375 652.828125 95.402344 652.828125 Z M 110.957031 649.511719 C 110.039062 649.511719 109.300781 650.25 109.300781 651.171875 C 109.300781 652.09375 110.039062 652.828125 110.957031 652.828125 C 111.878906 652.828125 112.617188 652.09375 112.617188 651.171875 C 112.617188 650.25 111.878906 649.511719 110.957031 649.511719 Z M 103.246094 660.542969 C 104.167969 660.542969 104.90625 659.804688 104.90625 658.882812 C 104.90625 657.960938 104.167969 657.226562 103.246094 657.226562 C 102.324219 657.226562 101.589844 657.960938 101.589844 658.882812 C 101.589844 659.804688 102.324219 660.542969 103.246094 660.542969 Z M 103.273438 641.644531 C 102.351562 641.644531 101.617188 642.382812 101.617188 643.300781 C 101.617188 644.222656 102.351562 644.960938 103.273438 644.960938 C 104.195312 644.960938 104.929688 644.222656 104.929688 643.300781 C 104.929688 642.382812 104.195312 641.644531 103.273438 641.644531 Z M 110.667969 664.777344 C 109.746094 664.777344 109.011719 665.515625 109.011719 666.4375 C 109.011719 667.359375 109.746094 668.09375 110.667969 668.09375 C 111.589844 668.09375 112.328125 667.359375 112.328125 666.4375 C 112.328125 665.515625 111.589844 664.777344 110.667969 664.777344 Z M 126.222656 664.777344 C 125.300781 664.777344 124.566406 665.515625 124.566406 666.4375 C 124.566406 667.359375 125.300781 668.09375 126.222656 668.09375 C 127.144531 668.09375 127.882812 667.359375 127.882812 666.4375 C 127.882812 665.515625 127.144531 664.777344 126.222656 664.777344 Z M 118.539062 672.464844 C 117.617188 672.464844 116.878906 673.199219 116.878906 674.121094 C 116.878906 675.042969 117.617188 675.78125 118.539062 675.78125 C 119.460938 675.78125 120.195312 675.042969 120.195312 674.121094 C 120.195312 673.199219 119.460938 672.464844 118.539062 672.464844 Z M 118.539062 656.910156 C 117.617188 656.910156 116.878906 657.644531 116.878906 658.566406 C 116.878906 659.488281 117.617188 660.226562 118.539062 660.226562 C 119.460938 660.226562 120.195312 659.488281 120.195312 658.566406 C 120.195312 657.644531 119.460938 656.910156 118.539062 656.910156 Z M 125.671875 683.097656 C 126.589844 683.097656 127.328125 682.359375 127.328125 681.4375 C 127.328125 680.515625 126.589844 679.78125 125.671875 679.78125 C 124.75 679.78125 124.011719 680.515625 124.011719 681.4375 C 124.011719 682.359375 124.75 683.097656 125.671875 683.097656 Z M 133.511719 687.464844 C 132.59375 687.464844 131.855469 688.203125 131.855469 689.121094 C 131.855469 690.042969 132.59375 690.78125 133.511719 690.78125 C 134.433594 690.78125 135.171875 690.042969 135.171875 689.121094 C 135.171875 688.203125 134.433594 687.464844 133.511719 687.464844 Z M 133.539062 671.910156 C 132.617188 671.910156 131.882812 672.648438 131.882812 673.570312 C 131.882812 674.488281 132.617188 675.226562 133.539062 675.226562 C 134.460938 675.226562 135.199219 674.488281 135.199219 673.570312 C 135.199219 672.648438 134.460938 671.910156 133.539062 671.910156 Z M 64.847656 652.828125 C 65.769531 652.828125 66.507812 652.09375 66.507812 651.171875 C 66.507812 650.25 65.769531 649.515625 64.847656 649.515625 C 63.925781 649.515625 63.191406 650.25 63.191406 651.171875 C 63.191406 652.09375 63.925781 652.828125 64.847656 652.828125 Z M 80.402344 649.511719 C 79.480469 649.511719 78.746094 650.25 78.746094 651.171875 C 78.746094 652.09375 79.480469 652.828125 80.402344 652.828125 C 81.324219 652.828125 82.0625 652.09375 82.0625 651.171875 C 82.0625 650.25 81.324219 649.511719 80.402344 649.511719 Z M 72.71875 660.542969 C 73.640625 660.542969 74.375 659.804688 74.375 658.882812 C 74.375 657.960938 73.640625 657.226562 72.71875 657.226562 C 71.796875 657.226562 71.058594 657.960938 71.058594 658.882812 C 71.058594 659.804688 71.796875 660.542969 72.71875 660.542969 Z M 71.058594 643.300781 C 71.058594 644.222656 71.796875 644.960938 72.71875 644.960938 C 73.640625 644.960938 74.375 644.222656 74.375 643.300781 C 74.375 642.382812 73.640625 641.644531 72.71875 641.644531 C 71.796875 641.644531 71.058594 642.382812 71.058594 643.300781 Z M 80.140625 668.121094 C 81.0625 668.121094 81.796875 667.382812 81.796875 666.460938 C 81.796875 665.542969 81.0625 664.804688 80.140625 664.804688 C 79.21875 664.804688 78.480469 665.542969 78.480469 666.460938 C 78.480469 667.382812 79.21875 668.121094 80.140625 668.121094 Z M 95.667969 664.777344 C 94.746094 664.777344 94.007812 665.515625 94.007812 666.4375 C 94.007812 667.359375 94.746094 668.09375 95.667969 668.09375 C 96.589844 668.09375 97.324219 667.359375 97.324219 666.4375 C 97.324219 665.515625 96.589844 664.777344 95.667969 664.777344 Z M 87.984375 675.804688 C 88.902344 675.804688 89.640625 675.070312 89.640625 674.148438 C 89.640625 673.226562 88.902344 672.488281 87.984375 672.488281 C 87.0625 672.488281 86.324219 673.226562 86.324219 674.148438 C 86.324219 675.070312 87.0625 675.804688 87.984375 675.804688 Z M 88.007812 656.910156 C 87.085938 656.910156 86.351562 657.644531 86.351562 658.566406 C 86.351562 659.488281 87.085938 660.226562 88.007812 660.226562 C 88.929688 660.226562 89.667969 659.488281 89.667969 658.566406 C 89.667969 657.671875 88.902344 656.910156 88.007812 656.910156 Z M 95.402344 683.386719 C 96.324219 683.386719 97.0625 682.648438 97.0625 681.726562 C 97.0625 680.804688 96.324219 680.070312 95.402344 680.070312 C 94.484375 680.070312 93.746094 680.804688 93.746094 681.726562 C 93.746094 682.648438 94.484375 683.386719 95.402344 683.386719 Z M 110.957031 680.042969 C 110.039062 680.042969 109.300781 680.78125 109.300781 681.703125 C 109.300781 682.621094 110.039062 683.359375 110.957031 683.359375 C 111.878906 683.359375 112.617188 682.621094 112.617188 681.703125 C 112.617188 680.78125 111.878906 680.042969 110.957031 680.042969 Z M 103.273438 687.753906 C 102.351562 687.753906 101.617188 688.492188 101.617188 689.414062 C 101.617188 690.332031 102.351562 691.070312 103.273438 691.070312 C 104.195312 691.070312 104.929688 690.332031 104.929688 689.414062 C 104.929688 688.492188 104.167969 687.753906 103.273438 687.753906 Z M 103.273438 672.199219 C 102.351562 672.199219 101.617188 672.9375 101.617188 673.859375 C 101.617188 674.78125 102.351562 675.515625 103.273438 675.515625 C 104.195312 675.515625 104.929688 674.78125 104.929688 673.859375 C 104.929688 672.9375 104.195312 672.199219 103.273438 672.199219 Z M 110.40625 695.042969 C 109.484375 695.042969 108.746094 695.78125 108.746094 696.703125 C 108.746094 697.625 109.484375 698.359375 110.40625 698.359375 C 111.328125 698.359375 112.0625 697.625 112.0625 696.703125 C 112.0625 695.78125 111.328125 695.042969 110.40625 695.042969 Z M 125.933594 695.042969 C 125.011719 695.042969 124.277344 695.78125 124.277344 696.703125 C 124.277344 697.625 125.011719 698.359375 125.933594 698.359375 C 126.855469 698.359375 127.589844 697.625 127.589844 696.703125 C 127.589844 695.78125 126.855469 695.042969 125.933594 695.042969 Z M 118.25 687.175781 C 117.328125 687.175781 116.589844 687.914062 116.589844 688.832031 C 116.589844 689.753906 117.328125 690.492188 118.25 690.492188 C 119.167969 690.492188 119.90625 689.753906 119.90625 688.832031 C 119.90625 687.914062 119.167969 687.175781 118.25 687.175781 Z M 49.714844 667.988281 C 50.636719 667.988281 51.375 667.253906 51.375 666.332031 C 51.375 665.410156 50.636719 664.671875 49.714844 664.671875 C 48.792969 664.671875 48.058594 665.410156 48.058594 666.332031 C 48.058594 667.253906 48.792969 667.988281 49.714844 667.988281 Z M 65.242188 664.648438 C 64.320312 664.648438 63.585938 665.382812 63.585938 666.304688 C 63.585938 667.226562 64.320312 667.964844 65.242188 667.964844 C 66.164062 667.964844 66.902344 667.226562 66.902344 666.304688 C 66.902344 665.382812 66.164062 664.648438 65.242188 664.648438 Z M 57.558594 675.675781 C 58.480469 675.675781 59.214844 674.9375 59.214844 674.015625 C 59.214844 673.09375 58.480469 672.359375 57.558594 672.359375 C 56.636719 672.359375 55.898438 673.09375 55.898438 674.015625 C 55.898438 674.9375 56.636719 675.675781 57.558594 675.675781 Z M 55.898438 658.460938 C 55.898438 659.382812 56.636719 660.121094 57.558594 660.121094 C 58.480469 660.121094 59.214844 659.382812 59.214844 658.460938 C 59.214844 657.539062 58.480469 656.804688 57.558594 656.804688 C 56.636719 656.804688 55.898438 657.539062 55.898438 658.460938 Z M 64.980469 683.253906 C 65.902344 683.253906 66.636719 682.515625 66.636719 681.597656 C 66.636719 680.675781 65.902344 679.9375 64.980469 679.9375 C 64.058594 679.9375 63.320312 680.675781 63.320312 681.597656 C 63.320312 682.515625 64.058594 683.253906 64.980469 683.253906 Z M 80.535156 679.9375 C 79.613281 679.9375 78.875 680.675781 78.875 681.597656 C 78.875 682.515625 79.613281 683.253906 80.535156 683.253906 C 81.457031 683.253906 82.191406 682.515625 82.191406 681.597656 C 82.191406 680.675781 81.457031 679.9375 80.535156 679.9375 Z M 72.847656 687.621094 C 71.929688 687.621094 71.191406 688.359375 71.191406 689.28125 C 71.191406 690.203125 71.929688 690.9375 72.847656 690.9375 C 73.769531 690.9375 74.507812 690.203125 74.507812 689.28125 C 74.507812 688.359375 73.742188 687.621094 72.847656 687.621094 Z M 72.847656 672.070312 C 71.929688 672.070312 71.191406 672.804688 71.191406 673.726562 C 71.191406 674.648438 71.929688 675.386719 72.847656 675.386719 C 73.769531 675.386719 74.507812 674.648438 74.507812 673.726562 C 74.507812 672.804688 73.769531 672.070312 72.847656 672.070312 Z M 80.246094 695.203125 C 79.324219 695.203125 78.585938 695.941406 78.585938 696.859375 C 78.585938 697.78125 79.324219 698.519531 80.246094 698.519531 C 81.164062 698.519531 81.902344 697.78125 81.902344 696.859375 C 81.929688 695.941406 81.164062 695.203125 80.246094 695.203125 Z M 95.800781 695.203125 C 94.878906 695.203125 94.140625 695.941406 94.140625 696.859375 C 94.140625 697.78125 94.878906 698.519531 95.800781 698.519531 C 96.71875 698.519531 97.457031 697.78125 97.457031 696.859375 C 97.457031 695.941406 96.71875 695.203125 95.800781 695.203125 Z M 88.113281 687.332031 C 87.191406 687.332031 86.457031 688.070312 86.457031 688.992188 C 86.457031 689.914062 87.191406 690.648438 88.113281 690.648438 C 89.035156 690.648438 89.773438 689.914062 89.773438 688.992188 C 89.796875 688.097656 89.035156 687.332031 88.113281 687.332031 Z M 34.449219 683.253906 C 35.371094 683.253906 36.109375 682.515625 36.109375 681.597656 C 36.109375 680.675781 35.371094 679.9375 34.449219 679.9375 C 33.53125 679.9375 32.792969 680.675781 32.792969 681.597656 C 32.792969 682.515625 33.53125 683.253906 34.449219 683.253906 Z M 49.976562 679.910156 C 49.058594 679.910156 48.320312 680.648438 48.320312 681.570312 C 48.320312 682.492188 49.058594 683.226562 49.976562 683.226562 C 50.898438 683.226562 51.636719 682.492188 51.636719 681.570312 C 51.636719 680.648438 50.898438 679.910156 49.976562 679.910156 Z M 42.292969 687.621094 C 41.371094 687.621094 40.636719 688.359375 40.636719 689.28125 C 40.636719 690.203125 41.371094 690.9375 42.292969 690.9375 C 43.214844 690.9375 43.953125 690.203125 43.953125 689.28125 C 43.953125 688.359375 43.214844 687.621094 42.292969 687.621094 Z M 42.292969 672.070312 C 41.371094 672.070312 40.636719 672.804688 40.636719 673.726562 C 40.636719 674.648438 41.371094 675.386719 42.292969 675.386719 C 43.214844 675.386719 43.953125 674.648438 43.953125 673.726562 C 43.953125 672.804688 43.214844 672.070312 42.292969 672.070312 Z M 49.714844 695.203125 C 48.792969 695.203125 48.058594 695.941406 48.058594 696.859375 C 48.058594 697.78125 48.792969 698.519531 49.714844 698.519531 C 50.636719 698.519531 51.375 697.78125 51.375 696.859375 C 51.375 695.941406 50.636719 695.203125 49.714844 695.203125 Z M 65.269531 695.203125 C 64.347656 695.203125 63.613281 695.941406 63.613281 696.859375 C 63.613281 697.78125 64.347656 698.519531 65.269531 698.519531 C 66.191406 698.519531 66.925781 697.78125 66.925781 696.859375 C 66.925781 695.941406 66.191406 695.203125 65.269531 695.203125 Z M 57.585938 687.332031 C 56.664062 687.332031 55.925781 688.070312 55.925781 688.992188 C 55.925781 689.914062 56.664062 690.648438 57.585938 690.648438 C 58.503906 690.648438 59.242188 689.914062 59.242188 688.992188 C 59.242188 688.070312 58.503906 687.332031 57.585938 687.332031 Z M 19.292969 695.070312 C 18.371094 695.070312 17.632812 695.808594 17.632812 696.730469 C 17.632812 697.648438 18.371094 698.386719 19.292969 698.386719 C 20.210938 698.386719 20.949219 697.648438 20.949219 696.730469 C 20.949219 695.808594 20.210938 695.070312 19.292969 695.070312 Z M 34.84375 695.070312 C 33.925781 695.070312 33.1875 695.808594 33.1875 696.730469 C 33.1875 697.648438 33.925781 698.386719 34.84375 698.386719 C 35.765625 698.386719 36.503906 697.648438 36.503906 696.730469 C 36.503906 695.808594 35.765625 695.070312 34.84375 695.070312 Z M 27.160156 687.203125 C 26.238281 687.203125 25.503906 687.9375 25.503906 688.859375 C 25.503906 689.78125 26.238281 690.519531 27.160156 690.519531 C 28.082031 690.519531 28.820312 689.78125 28.820312 688.859375 C 28.820312 687.9375 28.082031 687.203125 27.160156 687.203125 Z M 108.957031 575.269531 C 109.878906 575.269531 110.617188 574.53125 110.617188 573.609375 C 110.617188 572.691406 109.878906 571.953125 108.957031 571.953125 C 108.039062 571.953125 107.300781 572.664062 107.300781 573.585938 C 107.300781 574.507812 108.039062 575.269531 108.957031 575.269531 Z M 126.171875 573.585938 C 126.171875 572.664062 125.433594 571.925781 124.511719 571.925781 C 123.589844 571.925781 122.828125 572.664062 122.828125 573.585938 C 122.828125 574.507812 123.566406 575.242188 124.484375 575.242188 C 125.40625 575.242188 126.171875 574.507812 126.171875 573.585938 Z M 118.484375 581.296875 C 118.484375 580.375 117.75 579.636719 116.828125 579.636719 C 115.90625 579.636719 115.167969 580.375 115.167969 581.296875 C 115.167969 582.21875 115.90625 582.953125 116.828125 582.953125 C 117.75 582.953125 118.484375 582.191406 118.484375 581.296875 Z M 78.535156 575.136719 C 79.457031 575.136719 80.191406 574.402344 80.191406 573.480469 C 80.191406 572.558594 79.457031 571.820312 78.535156 571.820312 C 77.613281 571.820312 76.875 572.558594 76.875 573.480469 C 76.875 574.375 77.613281 575.136719 78.535156 575.136719 Z M 94.089844 575.136719 C 95.007812 575.136719 95.746094 574.402344 95.746094 573.480469 C 95.746094 572.558594 95.007812 571.820312 94.089844 571.820312 C 93.167969 571.820312 92.429688 572.558594 92.429688 573.480469 C 92.402344 574.375 93.167969 575.136719 94.089844 575.136719 Z M 86.378906 582.824219 C 87.296875 582.824219 88.035156 582.085938 88.035156 581.164062 C 88.035156 580.242188 87.296875 579.507812 86.378906 579.507812 C 85.457031 579.507812 84.71875 580.242188 84.71875 581.164062 C 84.71875 582.085938 85.457031 582.824219 86.378906 582.824219 Z M 93.796875 590.402344 C 94.71875 590.402344 95.457031 589.664062 95.457031 588.746094 C 95.457031 587.824219 94.71875 587.085938 93.796875 587.085938 C 92.878906 587.085938 92.140625 587.824219 92.140625 588.746094 C 92.140625 589.664062 92.878906 590.402344 93.796875 590.402344 Z M 111.011719 588.746094 C 111.011719 587.824219 110.273438 587.085938 109.351562 587.085938 C 108.433594 587.085938 107.695312 587.824219 107.695312 588.746094 C 107.695312 589.664062 108.433594 590.402344 109.351562 590.402344 C 110.273438 590.402344 111.011719 589.664062 111.011719 588.746094 Z M 103.324219 596.429688 C 103.324219 595.507812 102.589844 594.769531 101.667969 594.769531 C 100.746094 594.769531 100.011719 595.507812 100.011719 596.429688 C 100.011719 597.351562 100.746094 598.085938 101.667969 598.085938 C 102.589844 598.085938 103.324219 597.351562 103.324219 596.429688 Z M 101.667969 582.53125 C 102.589844 582.53125 103.324219 581.796875 103.324219 580.875 C 103.324219 579.953125 102.589844 579.21875 101.667969 579.21875 C 100.746094 579.21875 100.011719 579.953125 100.011719 580.875 C 100.011719 581.796875 100.746094 582.53125 101.667969 582.53125 Z M 47.976562 575.136719 C 48.898438 575.136719 49.636719 574.402344 49.636719 573.480469 C 49.636719 572.558594 48.898438 571.796875 47.976562 571.796875 C 47.058594 571.796875 46.320312 572.53125 46.320312 573.453125 C 46.320312 574.375 47.058594 575.136719 47.976562 575.136719 Z M 63.53125 575.136719 C 64.453125 575.136719 65.191406 574.402344 65.191406 573.480469 C 65.191406 572.558594 64.453125 571.796875 63.53125 571.796875 C 62.613281 571.796875 61.875 572.53125 61.875 573.453125 C 61.875 574.375 62.613281 575.136719 63.53125 575.136719 Z M 55.847656 582.824219 C 56.769531 582.824219 57.503906 582.085938 57.503906 581.164062 C 57.503906 580.242188 56.769531 579.507812 55.847656 579.507812 C 54.925781 579.507812 54.1875 580.242188 54.1875 581.164062 C 54.1875 582.085938 54.925781 582.824219 55.847656 582.824219 Z M 63.269531 590.402344 C 64.191406 590.402344 64.925781 589.664062 64.925781 588.746094 C 64.925781 587.824219 64.191406 587.085938 63.269531 587.085938 C 62.347656 587.085938 61.609375 587.824219 61.609375 588.746094 C 61.609375 589.664062 62.347656 590.402344 63.269531 590.402344 Z M 78.796875 587.058594 C 77.875 587.058594 77.140625 587.796875 77.140625 588.71875 C 77.140625 589.640625 77.875 590.375 78.796875 590.375 C 79.71875 590.375 80.457031 589.640625 80.457031 588.71875 C 80.457031 587.796875 79.71875 587.058594 78.796875 587.058594 Z M 71.113281 598.085938 C 72.035156 598.085938 72.769531 597.351562 72.769531 596.429688 C 72.769531 595.507812 72.035156 594.769531 71.113281 594.769531 C 70.191406 594.769531 69.453125 595.507812 69.453125 596.429688 C 69.453125 597.351562 70.191406 598.085938 71.113281 598.085938 Z M 71.113281 582.53125 C 72.035156 582.53125 72.769531 581.796875 72.769531 580.875 C 72.769531 579.953125 72.035156 579.21875 71.113281 579.21875 C 70.191406 579.21875 69.453125 579.953125 69.453125 580.875 C 69.453125 581.796875 70.191406 582.53125 71.113281 582.53125 Z M 78.535156 605.667969 C 79.457031 605.667969 80.191406 604.929688 80.191406 604.007812 C 80.191406 603.085938 79.457031 602.351562 78.535156 602.351562 C 77.613281 602.351562 76.875 603.085938 76.875 604.007812 C 76.875 604.929688 77.613281 605.667969 78.535156 605.667969 Z M 95.746094 604.007812 C 95.746094 603.085938 95.007812 602.351562 94.089844 602.351562 C 93.167969 602.351562 92.429688 603.085938 92.429688 604.007812 C 92.429688 604.929688 93.167969 605.667969 94.089844 605.667969 C 95.007812 605.667969 95.746094 604.929688 95.746094 604.007812 Z M 88.0625 611.695312 C 88.0625 610.773438 87.324219 610.035156 86.402344 610.035156 C 85.480469 610.035156 84.746094 610.773438 84.746094 611.695312 C 84.746094 612.613281 85.480469 613.351562 86.402344 613.351562 C 87.324219 613.351562 88.0625 612.613281 88.0625 611.695312 Z M 86.402344 594.480469 C 85.480469 594.480469 84.746094 595.21875 84.746094 596.140625 C 84.746094 597.0625 85.480469 597.796875 86.402344 597.796875 C 87.324219 597.796875 88.0625 597.0625 88.0625 596.140625 C 88.0625 595.21875 87.324219 594.480469 86.402344 594.480469 Z M 17.84375 575.296875 C 18.765625 575.296875 19.5 574.558594 19.5 573.636719 C 19.5 572.714844 18.765625 571.980469 17.84375 571.980469 C 16.921875 571.980469 16.183594 572.714844 16.183594 573.636719 C 16.183594 574.558594 16.921875 575.296875 17.84375 575.296875 Z M 33.398438 575.296875 C 34.320312 575.296875 35.054688 574.558594 35.054688 573.636719 C 35.054688 572.714844 34.320312 571.980469 33.398438 571.980469 C 32.476562 571.980469 31.738281 572.714844 31.738281 573.636719 C 31.738281 574.558594 32.476562 575.296875 33.398438 575.296875 Z M 25.710938 582.980469 C 26.632812 582.980469 27.371094 582.242188 27.371094 581.324219 C 27.371094 580.402344 26.632812 579.664062 25.710938 579.664062 C 24.792969 579.664062 24.054688 580.402344 24.054688 581.324219 C 24.027344 582.242188 24.792969 582.980469 25.710938 582.980469 Z M 32.84375 590.269531 C 33.765625 590.269531 34.503906 589.535156 34.503906 588.613281 C 34.503906 587.691406 33.765625 586.953125 32.84375 586.953125 C 31.925781 586.953125 31.1875 587.691406 31.1875 588.613281 C 31.1875 589.535156 31.925781 590.269531 32.84375 590.269531 Z M 48.371094 586.953125 C 47.453125 586.953125 46.714844 587.691406 46.714844 588.613281 C 46.714844 589.535156 47.453125 590.269531 48.371094 590.269531 C 49.292969 590.269531 50.03125 589.535156 50.03125 588.613281 C 50.03125 587.691406 49.292969 586.953125 48.371094 586.953125 Z M 40.6875 597.957031 C 41.609375 597.957031 42.347656 597.21875 42.347656 596.296875 C 42.347656 595.375 41.609375 594.640625 40.6875 594.640625 C 39.765625 594.640625 39.03125 595.375 39.03125 596.296875 C 39.03125 597.21875 39.765625 597.957031 40.6875 597.957031 Z M 40.6875 582.402344 C 41.609375 582.402344 42.347656 581.664062 42.347656 580.742188 C 42.347656 579.820312 41.609375 579.085938 40.6875 579.085938 C 39.765625 579.085938 39.03125 579.820312 39.03125 580.742188 C 39.03125 581.664062 39.792969 582.402344 40.6875 582.402344 Z M 48.109375 605.5625 C 49.03125 605.5625 49.769531 604.824219 49.769531 603.902344 C 49.769531 602.984375 49.03125 602.246094 48.109375 602.246094 C 47.1875 602.246094 46.453125 602.984375 46.453125 603.902344 C 46.453125 604.824219 47.1875 605.5625 48.109375 605.5625 Z M 63.664062 602.21875 C 62.742188 602.21875 62.007812 602.957031 62.007812 603.878906 C 62.007812 604.796875 62.742188 605.535156 63.664062 605.535156 C 64.585938 605.535156 65.320312 604.796875 65.320312 603.878906 C 65.320312 602.957031 64.585938 602.21875 63.664062 602.21875 Z M 55.953125 613.246094 C 56.875 613.246094 57.609375 612.511719 57.609375 611.589844 C 57.609375 610.667969 56.875 609.929688 55.953125 609.929688 C 55.03125 609.929688 54.292969 610.667969 54.292969 611.589844 C 54.292969 612.511719 55.058594 613.246094 55.953125 613.246094 Z M 55.980469 594.351562 C 55.058594 594.351562 54.320312 595.085938 54.320312 596.007812 C 54.320312 596.929688 55.058594 597.667969 55.980469 597.667969 C 56.898438 597.667969 57.636719 596.929688 57.636719 596.007812 C 57.636719 595.085938 56.898438 594.351562 55.980469 594.351562 Z M 63.375 620.828125 C 64.296875 620.828125 65.03125 620.089844 65.03125 619.167969 C 65.03125 618.246094 64.296875 617.511719 63.375 617.511719 C 62.453125 617.511719 61.714844 618.246094 61.714844 619.167969 C 61.714844 620.089844 62.453125 620.828125 63.375 620.828125 Z M 80.585938 619.167969 C 80.585938 618.246094 79.851562 617.511719 78.929688 617.511719 C 78.007812 617.511719 77.269531 618.246094 77.269531 619.167969 C 77.269531 620.089844 78.007812 620.828125 78.929688 620.828125 C 79.851562 620.828125 80.585938 620.089844 80.585938 619.167969 Z M 72.902344 626.851562 C 72.902344 625.933594 72.164062 625.195312 71.242188 625.195312 C 70.324219 625.195312 69.585938 625.933594 69.585938 626.851562 C 69.585938 627.773438 70.324219 628.511719 71.242188 628.511719 C 72.164062 628.511719 72.902344 627.773438 72.902344 626.851562 Z M 71.242188 609.640625 C 70.324219 609.640625 69.585938 610.378906 69.585938 611.300781 C 69.585938 612.21875 70.324219 612.957031 71.242188 612.957031 C 72.164062 612.957031 72.902344 612.21875 72.902344 611.300781 C 72.902344 610.378906 72.164062 609.640625 71.242188 609.640625 Z M 18.132812 587.21875 C 17.210938 587.21875 16.476562 587.953125 16.476562 588.875 C 16.476562 589.796875 17.210938 590.535156 18.132812 590.535156 C 19.054688 590.535156 19.792969 589.796875 19.792969 588.875 C 19.792969 587.953125 19.054688 587.21875 18.132812 587.21875 Z M 10.421875 594.929688 C 9.5 594.929688 8.761719 595.664062 8.761719 596.585938 C 8.761719 597.507812 9.5 598.246094 10.421875 598.246094 C 11.34375 598.246094 12.078125 597.507812 12.078125 596.585938 C 12.078125 595.664062 11.34375 594.929688 10.421875 594.929688 Z M 10.449219 579.347656 C 9.527344 579.347656 8.789062 580.085938 8.789062 581.007812 C 8.789062 581.925781 9.527344 582.664062 10.449219 582.664062 C 11.371094 582.664062 12.105469 581.925781 12.105469 581.007812 C 12.105469 580.085938 11.371094 579.347656 10.449219 579.347656 Z M 17.554688 605.535156 C 18.476562 605.535156 19.210938 604.796875 19.210938 603.878906 C 19.210938 602.957031 18.476562 602.21875 17.554688 602.21875 C 16.632812 602.21875 15.894531 602.957031 15.894531 603.878906 C 15.894531 604.796875 16.660156 605.535156 17.554688 605.535156 Z M 33.109375 602.21875 C 32.1875 602.21875 31.449219 602.957031 31.449219 603.878906 C 31.449219 604.796875 32.1875 605.535156 33.109375 605.535156 C 34.03125 605.535156 34.765625 604.796875 34.765625 603.878906 C 34.765625 602.957031 34.03125 602.21875 33.109375 602.21875 Z M 25.421875 613.246094 C 26.34375 613.246094 27.082031 612.511719 27.082031 611.589844 C 27.082031 610.667969 26.34375 609.929688 25.421875 609.929688 C 24.503906 609.929688 23.765625 610.667969 23.765625 611.589844 C 23.765625 612.511719 24.503906 613.246094 25.421875 613.246094 Z M 25.421875 597.691406 C 26.34375 597.691406 27.082031 596.957031 27.082031 596.035156 C 27.082031 595.113281 26.34375 594.375 25.421875 594.375 C 24.503906 594.375 23.765625 595.113281 23.765625 596.035156 C 23.765625 596.957031 24.503906 597.691406 25.421875 597.691406 Z M 32.84375 620.828125 C 33.765625 620.828125 34.503906 620.089844 34.503906 619.167969 C 34.503906 618.246094 33.765625 617.511719 32.84375 617.511719 C 31.925781 617.511719 31.1875 618.246094 31.1875 619.167969 C 31.1875 620.089844 31.925781 620.828125 32.84375 620.828125 Z M 48.398438 617.484375 C 47.476562 617.484375 46.742188 618.222656 46.742188 619.140625 C 46.742188 620.0625 47.476562 620.800781 48.398438 620.800781 C 49.320312 620.800781 50.058594 620.0625 50.058594 619.140625 C 50.058594 618.222656 49.292969 617.484375 48.398438 617.484375 Z M 40.6875 628.511719 C 41.609375 628.511719 42.347656 627.773438 42.347656 626.851562 C 42.347656 625.933594 41.609375 625.195312 40.6875 625.195312 C 39.765625 625.195312 39.03125 625.933594 39.03125 626.851562 C 39.03125 627.773438 39.765625 628.511719 40.6875 628.511719 Z M 40.714844 609.613281 C 39.792969 609.613281 39.054688 610.351562 39.054688 611.273438 C 39.054688 612.195312 39.792969 612.929688 40.714844 612.929688 C 41.636719 612.929688 42.371094 612.195312 42.371094 611.273438 C 42.371094 610.351562 41.636719 609.613281 40.714844 609.613281 Z M 48.109375 636.089844 C 49.03125 636.089844 49.769531 635.355469 49.769531 634.433594 C 49.769531 633.511719 49.03125 632.773438 48.109375 632.773438 C 47.1875 632.773438 46.453125 633.511719 46.453125 634.433594 C 46.453125 635.355469 47.1875 636.089844 48.109375 636.089844 Z M 65.320312 634.433594 C 65.320312 633.511719 64.585938 632.773438 63.664062 632.773438 C 62.742188 632.773438 62.007812 633.511719 62.007812 634.433594 C 62.007812 635.355469 62.742188 636.089844 63.664062 636.089844 C 64.585938 636.089844 65.320312 635.355469 65.320312 634.433594 Z M 57.636719 642.117188 C 57.636719 641.195312 56.898438 640.460938 55.980469 640.460938 C 55.058594 640.460938 54.320312 641.195312 54.320312 642.117188 C 54.320312 643.039062 55.058594 643.777344 55.980469 643.777344 C 56.898438 643.777344 57.636719 643.039062 57.636719 642.117188 Z M 55.980469 624.90625 C 55.058594 624.90625 54.320312 625.644531 54.320312 626.5625 C 54.320312 627.484375 55.058594 628.222656 55.980469 628.222656 C 56.898438 628.222656 57.636719 627.484375 57.636719 626.5625 C 57.636719 625.644531 56.898438 624.90625 55.980469 624.90625 Z M 17.976562 617.351562 C 17.054688 617.351562 16.316406 618.089844 16.316406 619.011719 C 16.316406 619.933594 17.054688 620.667969 17.976562 620.667969 C 18.894531 620.667969 19.632812 619.933594 19.632812 619.011719 C 19.632812 618.117188 18.894531 617.351562 17.976562 617.351562 Z M 10.265625 628.378906 C 11.183594 628.378906 11.921875 627.644531 11.921875 626.722656 C 11.921875 625.800781 11.183594 625.0625 10.265625 625.0625 C 9.34375 625.0625 8.605469 625.800781 8.605469 626.722656 C 8.605469 627.644531 9.34375 628.378906 10.265625 628.378906 Z M 10.289062 612.824219 C 11.210938 612.824219 11.949219 612.089844 11.949219 611.167969 C 11.949219 610.246094 11.210938 609.507812 10.289062 609.507812 C 9.367188 609.507812 8.632812 610.246094 8.632812 611.167969 C 8.632812 612.089844 9.367188 612.824219 10.289062 612.824219 Z M 17.6875 635.960938 C 18.605469 635.960938 19.34375 635.222656 19.34375 634.300781 C 19.34375 633.378906 18.605469 632.644531 17.6875 632.644531 C 16.765625 632.644531 16.027344 633.378906 16.027344 634.300781 C 16.027344 635.222656 16.765625 635.960938 17.6875 635.960938 Z M 33.238281 632.644531 C 32.320312 632.644531 31.582031 633.378906 31.582031 634.300781 C 31.582031 635.222656 32.320312 635.960938 33.238281 635.960938 C 34.160156 635.960938 34.898438 635.222656 34.898438 634.300781 C 34.898438 633.378906 34.160156 632.644531 33.238281 632.644531 Z M 25.554688 643.671875 C 26.476562 643.671875 27.214844 642.933594 27.214844 642.011719 C 27.214844 641.089844 26.476562 640.355469 25.554688 640.355469 C 24.632812 640.355469 23.898438 641.089844 23.898438 642.011719 C 23.871094 642.90625 24.632812 643.671875 25.554688 643.671875 Z M 25.554688 624.773438 C 24.632812 624.773438 23.898438 625.511719 23.898438 626.433594 C 23.898438 627.351562 24.632812 628.089844 25.554688 628.089844 C 26.476562 628.089844 27.214844 627.351562 27.214844 626.433594 C 27.214844 625.511719 26.476562 624.773438 25.554688 624.773438 Z M 32.976562 651.25 C 33.898438 651.25 34.636719 650.515625 34.636719 649.59375 C 34.636719 648.671875 33.898438 647.933594 32.976562 647.933594 C 32.054688 647.933594 31.320312 648.671875 31.320312 649.59375 C 31.320312 650.515625 32.054688 651.25 32.976562 651.25 Z M 50.1875 649.566406 C 50.1875 648.644531 49.453125 647.910156 48.53125 647.910156 C 47.609375 647.910156 46.871094 648.644531 46.871094 649.566406 C 46.871094 650.488281 47.609375 651.222656 48.53125 651.222656 C 49.453125 651.222656 50.1875 650.488281 50.1875 649.566406 Z M 42.476562 657.277344 C 42.476562 656.355469 41.742188 655.621094 40.820312 655.621094 C 39.898438 655.621094 39.160156 656.355469 39.160156 657.277344 C 39.160156 658.199219 39.898438 658.9375 40.820312 658.9375 C 41.742188 658.9375 42.476562 658.199219 42.476562 657.277344 Z M 40.820312 640.039062 C 39.898438 640.039062 39.160156 640.777344 39.160156 641.695312 C 39.160156 642.617188 39.898438 643.355469 40.820312 643.355469 C 41.742188 643.355469 42.476562 642.617188 42.476562 641.695312 C 42.476562 640.777344 41.742188 640.039062 40.820312 640.039062 Z M 17.976562 647.910156 C 17.054688 647.910156 16.316406 648.644531 16.316406 649.566406 C 16.316406 650.488281 17.054688 651.222656 17.976562 651.222656 C 18.894531 651.222656 19.632812 650.488281 19.632812 649.566406 C 19.632812 648.644531 18.894531 647.910156 17.976562 647.910156 Z M 10.265625 658.9375 C 11.183594 658.9375 11.921875 658.199219 11.921875 657.277344 C 11.921875 656.355469 11.183594 655.621094 10.265625 655.621094 C 9.34375 655.621094 8.605469 656.355469 8.605469 657.277344 C 8.605469 658.199219 9.367188 658.9375 10.265625 658.9375 Z M 10.289062 640.039062 C 9.367188 640.039062 8.632812 640.777344 8.632812 641.695312 C 8.632812 642.617188 9.367188 643.355469 10.289062 643.355469 C 11.210938 643.355469 11.949219 642.617188 11.949219 641.695312 C 11.949219 640.777344 11.210938 640.039062 10.289062 640.039062 Z M 17.6875 666.515625 C 18.605469 666.515625 19.34375 665.777344 19.34375 664.855469 C 19.34375 663.9375 18.605469 663.199219 17.6875 663.199219 C 16.765625 663.199219 16.027344 663.9375 16.027344 664.855469 C 16.027344 665.777344 16.765625 666.515625 17.6875 666.515625 Z M 34.898438 664.855469 C 34.898438 663.9375 34.160156 663.199219 33.238281 663.199219 C 32.320312 663.199219 31.582031 663.9375 31.582031 664.855469 C 31.582031 665.777344 32.320312 666.515625 33.238281 666.515625 C 34.160156 666.515625 34.898438 665.777344 34.898438 664.855469 Z M 27.214844 672.542969 C 27.214844 671.621094 26.476562 670.882812 25.554688 670.882812 C 24.632812 670.882812 23.898438 671.621094 23.898438 672.542969 C 23.898438 673.464844 24.632812 674.199219 25.554688 674.199219 C 26.476562 674.199219 27.214844 673.464844 27.214844 672.542969 Z M 25.554688 655.328125 C 24.632812 655.328125 23.898438 656.066406 23.898438 656.988281 C 23.898438 657.910156 24.632812 658.644531 25.554688 658.644531 C 26.476562 658.644531 27.214844 657.910156 27.214844 656.988281 C 27.214844 656.066406 26.476562 655.328125 25.554688 655.328125 Z M 19.765625 679.992188 C 19.765625 679.070312 19.027344 678.332031 18.105469 678.332031 C 17.1875 678.332031 16.449219 679.070312 16.449219 679.992188 C 16.449219 680.910156 17.1875 681.648438 18.105469 681.648438 C 19 681.675781 19.765625 680.910156 19.765625 679.992188 Z M 10.394531 686.015625 C 9.472656 686.015625 8.738281 686.753906 8.738281 687.675781 C 8.738281 688.597656 9.472656 689.332031 10.394531 689.332031 C 11.316406 689.332031 12.054688 688.597656 12.054688 687.675781 C 12.078125 686.78125 11.316406 686.015625 10.394531 686.015625 Z M 10.421875 670.464844 C 9.5 670.464844 8.761719 671.199219 8.761719 672.121094 C 8.761719 673.042969 9.5 673.78125 10.421875 673.78125 C 11.34375 673.78125 12.078125 673.042969 12.078125 672.121094 C 12.078125 671.199219 11.34375 670.464844 10.421875 670.464844 Z M 10.421875 670.464844"/></g></svg>