<?xml version="1.0" encoding="UTF-8"?><svg xmlns="http://www.w3.org/2000/svg" xmlns:xlink="http://www.w3.org/1999/xlink" contentScriptType="text/ecmascript" width="412.5" zoomAndPan="magnify" contentStyleType="text/css" viewBox="0 0 412.5 187.499995" height="187.499995" preserveAspectRatio="xMidYMid meet" version="1.0"><defs><clipPath id="clip-0"><path d="M 0.300781 0 L 411.703125 0 L 411.703125 186.457031 L 0.300781 186.457031 Z M 0.300781 0 " clip-rule="nonzero"/></clipPath></defs><g clip-path="url(#clip-0)"><path fill="rgb(0%, 0%, 0%)" d="M 411.90625 93.078125 C 411.625 96.230469 411.019531 99.339844 410.226562 102.414062 C 407.710938 112.15625 402.988281 120.699219 396.335938 128.21875 C 390.449219 134.867188 383.6875 140.519531 376.277344 145.398438 C 363.335938 153.929688 349.445312 160.515625 334.730469 165.390625 C 324.382812 168.824219 313.878906 171.699219 303.1875 173.859375 C 296.988281 175.101562 290.773438 176.328125 284.542969 177.460938 C 279.804688 178.316406 275.019531 179.03125 270.25 179.777344 C 267.015625 180.289062 263.785156 180.773438 260.554688 181.207031 C 257.726562 181.59375 254.898438 181.921875 252.054688 182.277344 C 248.855469 182.667969 245.667969 183.054688 242.46875 183.398438 C 239.890625 183.675781 237.308594 183.894531 234.714844 184.128906 C 231.667969 184.40625 228.609375 184.671875 225.5625 184.917969 C 223.699219 185.074219 221.835938 185.214844 219.96875 185.324219 C 217.21875 185.480469 214.46875 185.601562 211.71875 185.757812 C 206.015625 186.054688 200.300781 186.269531 194.597656 186.269531 C 191.800781 186.269531 188.988281 186.316406 186.191406 186.253906 C 180.738281 186.132812 175.285156 185.945312 169.84375 185.757812 C 166.785156 185.648438 163.722656 185.511719 160.664062 185.339844 C 158.488281 185.214844 156.3125 185.027344 154.136719 184.855469 C 152.628906 184.734375 151.136719 184.609375 149.632812 184.484375 C 144.8125 184.113281 140.027344 183.582031 135.226562 182.960938 C 129.617188 182.230469 124.023438 181.410156 118.476562 180.320312 C 99.179688 176.5625 86.78125 173.316406 65.664062 164.070312 C 58.953125 161.136719 52.382812 157.921875 46.058594 154.238281 C 39.578125 150.480469 33.394531 146.285156 27.707031 141.40625 C 20.375 135.054688 14.128906 127.796875 9.496094 119.238281 C 5.878906 112.527344 3.28125 105.445312 1.867188 97.941406 C 1.527344 96.15625 1.183594 94.367188 0.90625 92.582031 C 0.484375 89.910156 0.316406 87.207031 0.300781 84.503906 C 0.253906 72.496094 3.082031 61.15625 8.550781 50.496094 C 16.054688 35.863281 27.226562 24.835938 41.738281 17.128906 C 48.015625 13.804688 54.632812 11.445312 61.46875 9.625 C 64.796875 8.742188 68.152344 8.152344 71.554688 7.699219 C 75.269531 7.203125 78.980469 6.816406 82.710938 6.628906 C 86.128906 6.441406 89.5625 6.425781 92.980469 6.691406 C 94.890625 6.828125 96.820312 6.921875 98.730469 7.125 C 101.046875 7.359375 103.359375 7.683594 105.675781 7.964844 C 106.234375 8.027344 106.808594 8.089844 107.445312 8.167969 C 107.648438 7.792969 107.867188 7.453125 108.019531 7.09375 C 108.703125 5.554688 109.636719 4.1875 110.878906 3.054688 C 112.449219 1.59375 114.265625 0.695312 116.410156 0.460938 C 120.203125 0.0429688 123.761719 3.257812 123.652344 7.078125 C 123.636719 7.4375 123.574219 7.808594 123.449219 8.136719 C 123.234375 8.726562 122.765625 9.035156 122.144531 9.066406 C 121.492188 9.097656 121.058594 8.789062 120.808594 8.195312 C 120.652344 7.808594 120.558594 7.40625 120.421875 7.015625 C 120.171875 6.394531 119.953125 5.742188 119.644531 5.152344 C 119.222656 4.359375 118.507812 3.925781 117.609375 3.957031 C 117.09375 3.972656 116.566406 4.035156 116.085938 4.203125 C 114.144531 4.871094 112.292969 6.738281 111.441406 8.863281 C 113.007812 9.394531 114.640625 9.59375 116.226562 10 C 117.886719 10.433594 119.550781 10.824219 121.195312 11.289062 C 122.796875 11.738281 124.367188 12.234375 126.046875 12.75 C 126.183594 12.484375 126.371094 12.234375 126.464844 11.972656 C 126.804688 10.867188 127.257812 9.828125 127.863281 8.847656 C 128.671875 7.542969 129.726562 6.503906 131.09375 5.773438 C 132.570312 4.964844 134.15625 4.765625 135.769531 5.042969 C 137.464844 5.339844 138.691406 6.347656 139.484375 7.855469 C 140.402344 9.609375 140.664062 11.492188 140.527344 13.449219 C 140.511719 13.601562 140.496094 13.757812 140.449219 13.898438 C 140.277344 14.394531 140.121094 14.921875 139.484375 15 C 138.738281 15.09375 138.054688 14.769531 137.792969 14.164062 C 137.621094 13.789062 137.542969 13.371094 137.464844 12.964844 C 137.339844 12.359375 137.308594 11.722656 137.125 11.132812 C 136.425781 8.789062 134.824219 8.042969 132.632812 9.6875 C 131.25 10.730469 130.550781 12.21875 130.085938 13.945312 C 130.378906 14.101562 130.644531 14.253906 130.90625 14.347656 C 138.941406 17.316406 146.878906 20.484375 154.695312 24.011719 C 159.527344 26.1875 164.5 27.988281 169.457031 29.835938 C 171.351562 30.535156 173.277344 31.1875 175.160156 31.933594 C 176.992188 32.664062 178.78125 33.488281 180.582031 34.296875 C 180.722656 34.359375 180.863281 34.433594 181 34.527344 C 181.886719 34.667969 182.789062 34.746094 183.703125 34.855469 C 183.796875 34.699219 183.953125 34.542969 184.109375 34.496094 C 184.855469 34.203125 185.648438 34.296875 186.425781 34.359375 C 187.09375 34.417969 187.761719 34.511719 188.429688 34.589844 C 190.898438 34.902344 193.386719 35.101562 195.839844 35.539062 C 198.699219 36.050781 201.574219 36.5 204.449219 36.875 C 206.808594 37.183594 209.1875 37.433594 211.5625 37.667969 C 214.828125 37.960938 218.074219 38.210938 221.335938 38.488281 C 221.601562 38.503906 221.851562 38.535156 222.113281 38.550781 C 224.816406 38.660156 227.503906 38.816406 230.207031 38.878906 C 234.667969 38.988281 239.144531 39.109375 243.601562 39.09375 C 250.671875 39.078125 257.726562 39.003906 264.796875 38.847656 C 269.410156 38.738281 274.039062 38.535156 278.640625 38.242188 C 282.679688 37.976562 286.71875 37.605469 290.726562 37.121094 C 296.242188 36.46875 301.726562 35.679688 307.246094 34.964844 C 310.226562 34.574219 313.226562 34.25 316.210938 33.90625 C 318.742188 33.628906 321.257812 33.347656 323.792969 33.097656 C 325.4375 32.945312 327.101562 32.789062 328.765625 32.757812 C 332.664062 32.695312 336.546875 32.632812 340.449219 32.695312 C 343.136719 32.742188 345.839844 33.007812 348.527344 33.207031 C 350.75 33.378906 352.972656 33.628906 355.191406 33.859375 C 358.550781 34.21875 361.859375 34.855469 365.183594 35.414062 C 369.238281 36.097656 373.21875 37.058594 377.117188 38.289062 C 380.890625 39.484375 384.496094 41.039062 387.914062 43.042969 C 393.152344 46.101562 397.425781 50.234375 401.058594 55.050781 C 405.847656 61.402344 409.171875 68.425781 410.847656 76.207031 C 411.421875 78.894531 411.796875 81.613281 412.015625 84.363281 C 412.214844 87.285156 412.167969 90.1875 411.90625 93.078125 Z M 411.90625 93.078125 " fill-opacity="1" fill-rule="nonzero"/></g><path fill="rgb(70.199585%, 74.119568%, 77.648926%)" d="M 403.15625 114.050781 C 400.734375 118.726562 397.6875 123.074219 394.039062 127.097656 C 388.644531 133.066406 382.539062 138.207031 375.890625 142.695312 C 366.957031 148.722656 357.476562 153.757812 347.550781 157.9375 C 337.496094 162.175781 327.101562 165.421875 316.550781 168.203125 C 310.273438 169.851562 303.949219 171.234375 297.578125 172.492188 C 292.839844 173.421875 288.101562 174.277344 283.347656 175.117188 C 279.507812 175.785156 275.671875 176.40625 271.835938 176.996094 C 267.171875 177.710938 262.496094 178.425781 257.820312 179.046875 C 253.082031 179.667969 248.339844 180.195312 243.601562 180.710938 C 239.375 181.160156 235.132812 181.546875 230.894531 181.953125 C 229.402344 182.09375 227.894531 182.199219 226.386719 182.324219 C 224.164062 182.496094 221.941406 182.683594 219.707031 182.835938 C 217.109375 182.992188 214.515625 183.148438 211.921875 183.242188 C 207.304688 183.429688 202.691406 183.660156 198.0625 183.738281 C 188.398438 183.894531 178.75 183.707031 169.101562 183.242188 C 163.910156 182.992188 158.71875 182.761719 153.5625 182.277344 C 149.117188 181.875 144.675781 181.5 140.230469 181.003906 C 136.003906 180.523438 131.792969 179.949219 127.582031 179.328125 C 122.097656 178.503906 116.644531 177.460938 111.207031 176.296875 C 104.867188 174.929688 98.558594 173.421875 92.359375 171.496094 C 81.4375 168.109375 70.871094 163.824219 60.539062 158.945312 C 52.691406 155.234375 45.09375 151.101562 37.960938 146.097656 C 32.214844 142.058594 26.789062 137.648438 22.035156 132.445312 C 18.679688 128.777344 15.710938 124.863281 13.179688 120.667969 C 18.429688 126.898438 24.320312 132.566406 31.09375 137.257812 C 31.21875 137.804688 31.546875 138.050781 31.824219 138.300781 C 32.554688 138.96875 33.285156 139.636719 34.078125 140.226562 C 38.132812 143.285156 42.265625 146.269531 46.757812 148.691406 C 47.859375 149.28125 48.933594 149.917969 50.019531 150.527344 C 58.050781 155 66.335938 158.976562 74.925781 162.253906 C 82.679688 165.222656 90.558594 167.816406 98.574219 169.992188 C 105.332031 171.824219 112.125 173.515625 119.007812 174.820312 C 122.828125 175.550781 126.667969 176.1875 130.503906 176.808594 C 132.710938 177.167969 134.933594 177.417969 137.140625 177.648438 C 138.273438 177.773438 139.421875 177.773438 140.558594 177.773438 C 140.898438 177.773438 141.242188 177.585938 141.582031 177.476562 C 141.597656 177.476562 141.613281 177.449219 141.628906 177.402344 C 144.628906 177.710938 147.6875 178.023438 150.71875 178.253906 C 151.945312 178.488281 153.1875 178.722656 154.433594 178.90625 C 157.042969 179.3125 159.667969 179.699219 162.292969 179.996094 C 164.8125 180.289062 167.359375 180.507812 169.890625 180.695312 C 172.734375 180.894531 175.59375 181.113281 178.4375 181.207031 C 185.554688 181.410156 192.65625 181.425781 199.769531 180.988281 C 204.011719 180.726562 208.269531 180.554688 212.527344 180.367188 C 218.339844 180.121094 224.132812 179.714844 229.898438 179.03125 C 231.03125 178.890625 232.152344 178.644531 233.253906 178.410156 C 233.457031 178.363281 233.566406 178.300781 233.628906 178.191406 C 234.777344 178.191406 235.925781 178.175781 237.078125 178.117188 C 237.417969 178.160156 237.714844 178.207031 238.007812 178.207031 C 241.644531 178.207031 245.28125 177.960938 248.902344 177.648438 C 251.542969 177.433594 254.167969 177.152344 256.792969 176.855469 C 259.730469 176.53125 262.683594 176.25 265.605469 175.816406 C 269.753906 175.195312 273.902344 174.480469 278.035156 173.765625 C 284.480469 172.664062 290.867188 171.296875 297.238281 169.820312 C 306.078125 167.753906 314.828125 165.359375 323.542969 162.8125 C 336.671875 158.976562 349.382812 154.082031 361.578125 147.855469 C 370.25 143.410156 378.484375 138.300781 385.878906 131.945312 C 387.371094 130.65625 388.847656 129.351562 390.324219 128.03125 C 390.511719 127.859375 390.648438 127.628906 390.773438 127.410156 C 390.804688 127.347656 390.757812 127.207031 390.695312 127.144531 C 395.15625 123.183594 399.539062 118.898438 403.15625 114.050781 Z M 403.15625 114.050781 " fill-opacity="1" fill-rule="nonzero"/><path fill="rgb(77.648926%, 90.979004%, 91.369629%)" d="M 392.25 84.160156 C 392.1875 80.929688 391.753906 77.746094 390.789062 74.65625 C 390.542969 73.847656 390.183594 73.148438 389.65625 72.480469 C 388.351562 70.863281 387.136719 69.171875 385.601562 67.757812 C 384.605469 66.839844 383.613281 65.910156 382.507812 65.164062 C 377.257812 61.636719 371.632812 58.886719 365.527344 57.195312 C 362.214844 56.277344 358.84375 55.6875 355.425781 55.375 C 348.480469 54.753906 341.535156 54.613281 334.574219 54.722656 C 328.546875 54.816406 322.535156 54.957031 316.503906 55.175781 C 311.78125 55.34375 307.074219 55.6875 302.351562 55.949219 C 300.328125 56.058594 298.308594 56.183594 296.289062 56.261719 C 293.027344 56.402344 289.75 56.496094 286.484375 56.679688 C 282.710938 56.898438 278.917969 57.207031 275.144531 57.488281 C 272.238281 57.707031 269.347656 57.984375 266.457031 58.21875 C 262.992188 58.5 259.527344 58.792969 256.0625 59.027344 C 253.421875 59.199219 250.78125 59.320312 248.125 59.382812 C 241.941406 59.523438 235.753906 59.492188 229.585938 59.089844 C 226.433594 58.871094 223.277344 58.574219 220.125 58.3125 C 218.773438 58.203125 217.4375 58.078125 216.085938 57.953125 C 211.90625 57.550781 207.710938 57.117188 203.53125 56.710938 C 199.910156 56.355469 196.289062 56.042969 192.6875 55.65625 C 188.707031 55.234375 184.777344 54.550781 180.863281 53.730469 C 171.570312 51.773438 162.324219 49.628906 153.125 47.296875 C 149.039062 46.273438 145.078125 44.875 141.132812 43.429688 C 140.261719 43.101562 139.40625 42.699219 138.566406 42.296875 C 136.175781 41.175781 133.78125 40.027344 131.390625 38.894531 C 131.09375 38.753906 130.832031 38.566406 130.316406 38.273438 C 130.148438 38.226562 129.976562 38.195312 129.804688 38.148438 C 129.820312 38.289062 129.835938 38.441406 129.851562 38.582031 C 129.898438 39.050781 129.945312 39.515625 129.914062 39.980469 C 129.867188 41.175781 129.105469 41.890625 127.910156 41.875 C 127.707031 41.875 127.488281 41.828125 127.289062 41.78125 C 126.496094 41.597656 126.261719 41.332031 126.183594 40.507812 C 126.089844 39.359375 125.984375 38.210938 125.875 37.058594 C 125.144531 36.828125 124.382812 36.609375 123.621094 36.421875 C 123.527344 36.6875 123.234375 36.71875 122.796875 36.671875 C 122.207031 36.59375 121.398438 36.378906 120.589844 36.175781 C 118.167969 35.570312 115.867188 34.636719 113.539062 33.78125 C 112.851562 33.535156 112.167969 33.285156 111.5 33.035156 C 111.238281 32.945312 111.066406 32.757812 111.082031 32.460938 C 111.082031 32.367188 111.128906 32.261719 111.191406 32.167969 C 110.910156 32.074219 110.648438 31.996094 110.367188 31.902344 C 110.382812 31.980469 110.398438 32.058594 110.398438 32.121094 C 110.476562 32.679688 110.539062 33.253906 110.539062 33.8125 C 110.554688 34.359375 110.289062 34.808594 109.871094 35.164062 C 109.03125 35.863281 107.867188 35.617188 107.429688 34.605469 C 107.027344 33.691406 106.996094 32.695312 106.886719 31.714844 C 106.855469 31.453125 106.824219 31.171875 106.808594 30.910156 C 105.921875 30.675781 105.039062 30.441406 104.152344 30.179688 C 104.074219 30.273438 103.980469 30.363281 103.855469 30.410156 C 103.25 30.675781 102.644531 30.644531 102.023438 30.488281 C 100.019531 29.976562 97.96875 29.574219 96.011719 28.921875 C 91.597656 27.445312 87.0625 27.101562 82.476562 27.460938 C 78.375 27.769531 74.382812 28.65625 70.484375 29.976562 C 65.105469 31.808594 59.980469 34.15625 55.210938 37.261719 C 52.070312 39.296875 48.902344 41.285156 46.011719 43.664062 C 41.894531 47.035156 38.179688 50.792969 35.164062 55.203125 C 34.402344 56.324219 33.644531 57.441406 32.851562 58.53125 C 30.96875 61.109375 29.648438 63.964844 28.5625 66.964844 C 28.234375 67.882812 27.769531 68.765625 27.398438 69.667969 C 27.257812 69.992188 27.132812 70.351562 27.070312 70.691406 C 26.542969 74.34375 26.277344 78.027344 26.496094 81.722656 C 26.945312 89.566406 29.308594 96.777344 33.675781 103.316406 C 36.75 107.945312 40.527344 111.90625 44.769531 115.480469 C 50.359375 120.1875 56.5 124.054688 62.960938 127.410156 C 71.867188 132.039062 81.078125 135.921875 90.589844 139.15625 C 101.742188 142.945312 113.023438 146.316406 124.492188 149.035156 C 132.214844 150.867188 139.964844 152.578125 147.78125 153.941406 C 152.644531 154.796875 157.507812 155.558594 162.402344 156.101562 C 166.894531 156.601562 171.367188 157.160156 175.875 157.53125 C 180.117188 157.890625 184.371094 158.089844 188.613281 158.292969 C 198.21875 158.757812 207.820312 158.914062 217.421875 158.742188 C 223.855469 158.621094 230.300781 158.417969 236.734375 158.152344 C 241.816406 157.9375 246.894531 157.609375 251.976562 157.238281 C 255.863281 156.941406 259.730469 156.492188 263.597656 156.132812 C 269.332031 155.589844 275.035156 154.78125 280.722656 153.804688 C 286.191406 152.855469 291.644531 151.800781 297.066406 150.664062 C 305.550781 148.894531 313.988281 146.953125 322.394531 144.855469 C 329.945312 142.976562 337.402344 140.722656 344.675781 137.957031 C 351.527344 135.347656 358.035156 132.007812 364.28125 128.15625 C 367.46875 126.183594 370.511719 124.023438 373.417969 121.664062 C 378.375 117.625 382.570312 112.917969 385.863281 107.433594 C 388.335938 103.316406 390.199219 98.933594 391.195312 94.210938 C 391.925781 90.902344 392.328125 87.546875 392.25 84.160156 Z M 80.96875 54.878906 C 81.28125 54.707031 81.421875 54.566406 81.53125 54.597656 C 85.085938 55.4375 88.738281 55.390625 92.34375 55.6875 C 94.316406 55.84375 96.242188 56.230469 98.203125 56.496094 C 101.589844 56.960938 104.976562 57.457031 108.363281 57.9375 C 110.832031 58.28125 113.289062 58.589844 115.757812 58.933594 C 116.117188 58.980469 116.457031 59.105469 116.769531 59.183594 C 116.847656 59.507812 116.707031 59.664062 116.488281 59.632812 C 114.53125 59.429688 112.574219 59.226562 110.617188 59.011719 C 108.191406 58.746094 105.769531 58.5 103.359375 58.171875 C 100.4375 57.769531 97.519531 57.285156 94.597656 56.851562 C 93.414062 56.679688 92.234375 56.496094 91.054688 56.371094 C 88.785156 56.121094 86.515625 55.933594 84.25 55.671875 C 83.191406 55.5625 82.167969 55.421875 80.96875 54.878906 Z M 113.179688 116.320312 C 110.335938 115.742188 107.507812 115.136719 104.664062 114.59375 C 101.773438 114.050781 98.871094 113.570312 95.964844 113.039062 C 95 112.871094 94.039062 112.652344 93.089844 112.417969 C 92.917969 112.371094 92.761719 112.25 92.625 112.15625 C 92.6875 111.765625 92.917969 111.8125 93.105469 111.828125 C 95.964844 112.234375 98.855469 112.558594 101.699219 113.085938 C 104.742188 113.644531 107.757812 114.375 110.785156 115.042969 C 111.890625 115.292969 112.992188 115.605469 114.082031 115.898438 C 114.222656 115.945312 114.328125 116.132812 114.65625 116.457031 C 113.972656 116.410156 113.566406 116.394531 113.179688 116.320312 Z M 137.339844 88.09375 C 135.941406 87.953125 134.558594 87.8125 133.160156 87.65625 C 130.785156 87.394531 128.421875 87.128906 126.042969 86.863281 C 123.511719 86.585938 120.996094 86.320312 118.460938 86.042969 C 117.171875 85.902344 115.882812 85.777344 114.59375 85.636719 C 111.90625 85.359375 109.234375 85.046875 106.5625 84.78125 C 103.980469 84.519531 101.402344 84.253906 98.824219 84.054688 C 95.25 83.773438 91.707031 83.308594 88.210938 82.5 C 87.960938 82.4375 87.683594 82.421875 87.621094 82.078125 C 87.898438 81.707031 88.273438 81.894531 88.597656 81.941406 C 90.558594 82.15625 92.515625 82.40625 94.472656 82.625 C 95.03125 82.6875 95.605469 82.761719 96.183594 82.761719 C 99.039062 82.808594 101.867188 83.089844 104.710938 83.371094 C 107.246094 83.617188 109.777344 83.835938 112.292969 84.097656 C 114.207031 84.300781 116.101562 84.566406 117.996094 84.8125 C 120.777344 85.171875 123.542969 85.542969 126.324219 85.917969 C 129.199219 86.304688 132.074219 86.679688 134.964844 87.050781 C 135.523438 87.128906 136.097656 87.160156 136.65625 87.253906 C 137.09375 87.332031 137.574219 87.332031 137.914062 87.671875 C 137.867188 88.105469 137.589844 88.121094 137.339844 88.09375 Z M 173.621094 94.445312 C 174.800781 94.539062 176 94.664062 177.179688 94.742188 C 179.976562 94.941406 182.757812 95.128906 185.554688 95.316406 C 186.285156 95.363281 187 95.363281 187.730469 95.425781 C 187.960938 95.441406 188.179688 95.59375 188.660156 95.796875 C 188.132812 95.953125 187.851562 96.109375 187.589844 96.109375 C 186.765625 96.109375 185.925781 96.046875 185.101562 96.015625 C 183.703125 95.96875 182.304688 95.96875 180.90625 95.90625 C 179.820312 95.859375 178.75 95.734375 177.660156 95.625 C 176.730469 95.515625 175.8125 95.378906 174.894531 95.238281 C 174.289062 95.144531 173.667969 95.097656 173.09375 94.863281 C 173.09375 94.460938 173.355469 94.429688 173.621094 94.445312 Z M 165.339844 67.664062 C 163.257812 67.277344 161.160156 66.886719 159.078125 66.5 C 157.246094 66.15625 155.410156 65.800781 153.578125 65.503906 C 152.816406 65.378906 152.023438 65.394531 151.246094 65.347656 C 150.59375 65.316406 149.957031 65.210938 149.351562 65.007812 C 149.398438 64.589844 149.632812 64.574219 149.832031 64.589844 C 150.96875 64.632812 152.117188 64.648438 153.25 64.773438 C 155.457031 65.023438 157.664062 65.363281 159.871094 65.628906 C 161.78125 65.863281 163.628906 66.328125 165.449219 66.980469 C 165.664062 67.058594 165.835938 67.230469 166.023438 67.351562 C 165.851562 67.757812 165.589844 67.710938 165.339844 67.664062 Z M 192.140625 135.691406 C 191.179688 135.535156 190.199219 135.378906 189.234375 135.222656 C 188.320312 135.085938 187.386719 134.976562 186.46875 134.835938 C 185.492188 134.695312 184.527344 134.539062 183.550781 134.386719 C 182.632812 134.230469 181.714844 134.089844 180.800781 133.917969 C 179.882812 133.75 178.980469 133.546875 178.066406 133.34375 C 177.101562 133.125 176.136719 132.941406 175.207031 132.628906 C 174.335938 132.351562 173.386719 132.429688 172.566406 132.085938 C 172.566406 131.667969 172.828125 131.667969 173 131.683594 C 173.777344 131.730469 174.554688 131.730469 175.316406 131.898438 C 180.222656 132.972656 185.164062 133.808594 190.121094 134.617188 C 191.394531 134.820312 192.671875 135.039062 193.945312 135.269531 C 194.238281 135.316406 194.519531 135.441406 195.046875 135.613281 C 194.253906 136.015625 194.113281 136 192.140625 135.691406 Z M 251.835938 115.726562 C 250.75 115.664062 249.660156 115.589844 248.589844 115.496094 C 246.121094 115.246094 243.648438 114.980469 241.179688 114.71875 C 239.78125 114.578125 238.398438 114.40625 237 114.3125 C 234.09375 114.113281 231.234375 113.660156 228.40625 112.992188 C 228.125 112.933594 227.878906 112.746094 227.566406 112.589844 C 227.753906 112.464844 227.847656 112.371094 227.925781 112.371094 C 236.035156 113.351562 244.144531 114.328125 252.273438 115.308594 C 252.367188 115.726562 252.085938 115.742188 251.835938 115.726562 Z M 265.945312 82.671875 C 265.695312 82.734375 265.433594 82.734375 265.167969 82.746094 C 258.332031 82.980469 251.496094 83.261719 244.660156 83.445312 C 241.753906 83.523438 238.847656 83.476562 235.957031 83.429688 C 232.988281 83.371094 230.085938 82.902344 227.195312 82.265625 C 227.054688 82.234375 226.914062 82.171875 226.773438 82.125 C 227.769531 81.863281 228.796875 81.925781 229.820312 82.035156 C 231.578125 82.21875 233.332031 82.453125 235.085938 82.484375 C 238.863281 82.578125 242.65625 82.59375 246.429688 82.328125 C 247.875 82.21875 249.335938 82.21875 250.78125 82.203125 C 255.550781 82.171875 260.320312 82.171875 265.089844 82.15625 C 265.496094 82.15625 265.898438 82.203125 266.550781 82.25 C 266.210938 82.484375 266.085938 82.625 265.945312 82.671875 Z M 289.84375 132.441406 C 287.511719 132.972656 285.132812 133.035156 282.773438 133.082031 C 279.554688 133.140625 278.734375 133.050781 277.425781 132.550781 C 277.441406 132.289062 277.613281 132.179688 277.832031 132.210938 C 280.769531 132.550781 283.71875 132.445312 286.65625 132.164062 C 287.527344 132.085938 288.414062 132.039062 289.28125 131.992188 C 289.515625 131.976562 289.75 132.054688 290.011719 132.101562 C 289.933594 132.273438 289.90625 132.429688 289.84375 132.441406 Z M 308.113281 110.523438 C 307.246094 110.617188 306.359375 110.710938 305.488281 110.773438 C 302.597656 110.972656 299.691406 111.222656 296.789062 111.097656 C 295.078125 111.019531 293.371094 110.851562 291.675781 110.710938 C 290.851562 110.648438 290.027344 110.570312 289.207031 110.476562 C 289.050781 110.460938 288.910156 110.277344 288.613281 110.027344 C 289.082031 109.980469 289.328125 109.917969 289.578125 109.917969 C 295.46875 110.121094 306.917969 109.683594 308.535156 110.058594 C 308.628906 110.414062 308.363281 110.492188 308.113281 110.523438 Z M 332.585938 83.742188 C 331.761719 83.851562 330.9375 83.960938 330.117188 84.007812 C 328.40625 84.113281 326.699219 84.191406 324.988281 84.285156 C 324.414062 84.316406 323.839844 84.316406 323.277344 84.300781 C 320.730469 84.207031 318.199219 84.054688 315.664062 83.992188 C 312.09375 83.898438 308.503906 83.851562 304.929688 83.820312 C 304.105469 83.804688 303.28125 83.929688 302.441406 83.992188 C 301.835938 84.039062 301.214844 84.175781 300.609375 84.023438 C 300.5625 83.632812 300.8125 83.539062 301.074219 83.507812 C 303.035156 83.308594 304.992188 82.996094 306.949219 82.933594 C 311.984375 82.777344 317.015625 82.808594 322.050781 82.996094 C 325.269531 83.121094 328.484375 83.074219 331.699219 83.121094 C 332.152344 83.121094 332.632812 82.980469 333.269531 83.429688 C 332.929688 83.585938 332.773438 83.726562 332.585938 83.742188 Z M 351.246094 105.785156 C 349.738281 105.832031 346.878906 105.429688 345.949219 105.070312 C 346.179688 104.542969 346.648438 104.746094 347.019531 104.730469 C 349.476562 104.699219 350.5 104.914062 351.417969 105.582031 C 351.355469 105.660156 351.292969 105.785156 351.246094 105.785156 Z M 374.476562 94.179688 C 374.210938 94.335938 373.917969 94.492188 373.621094 94.523438 C 371.789062 94.773438 369.9375 95.113281 368.074219 94.742188 C 367.917969 94.710938 367.761719 94.679688 367.640625 94.617188 C 367.5625 94.585938 367.453125 94.460938 367.46875 94.398438 C 367.5 94.273438 367.578125 94.121094 367.683594 94.042969 C 367.808594 93.949219 367.964844 93.917969 368.121094 93.902344 C 370.171875 93.714844 372.238281 93.542969 374.304688 93.390625 C 374.445312 93.375 374.585938 93.480469 374.925781 93.605469 C 374.707031 93.886719 374.628906 94.089844 374.476562 94.179688 Z M 374.476562 94.179688 " fill-opacity="1" fill-rule="nonzero"/><path fill="rgb(52.549744%, 56.079102%, 58.81958%)" d="M 106.839844 30.925781 C 105.953125 30.691406 105.070312 30.457031 104.183594 30.195312 C 104.355469 29.945312 104.355469 29.621094 104.089844 29.433594 C 103.625 29.121094 103.128906 28.828125 102.597656 28.625 C 101 28.035156 99.367188 27.507812 97.75 26.933594 C 94.597656 25.8125 91.363281 25.113281 88.023438 24.945312 C 84.015625 24.742188 80.023438 25.066406 76.105469 25.921875 C 69.363281 27.382812 62.976562 29.851562 57.042969 33.363281 C 53.871094 35.226562 50.796875 37.277344 47.796875 39.40625 C 41.847656 43.617188 36.75 48.679688 32.726562 54.769531 C 32.414062 55.25 32.089844 55.71875 31.761719 56.183594 C 31.652344 56.339844 31.5 56.464844 31.359375 56.617188 C 31.3125 56.527344 31.25 56.480469 31.265625 56.449219 C 31.40625 56.121094 31.546875 55.78125 31.699219 55.453125 C 33.144531 52.625 34.886719 49.984375 36.8125 47.453125 C 37.976562 45.929688 39.019531 44.316406 40.105469 42.730469 C 40.308594 42.433594 40.480469 42.109375 40.636719 41.78125 C 40.851562 41.347656 40.789062 41.054688 40.511719 40.804688 C 40.355469 40.664062 40.167969 40.585938 39.980469 40.585938 C 40.542969 39.6875 41.242188 38.910156 42.003906 38.179688 C 42.046875 38.257812 42.109375 38.320312 42.171875 38.382812 C 42.5 38.675781 42.996094 38.660156 43.460938 38.320312 C 43.679688 38.164062 43.867188 37.992188 44.070312 37.820312 C 44.472656 37.496094 44.859375 37.152344 45.265625 36.828125 C 51.339844 32.183594 58.082031 28.765625 65.339844 26.417969 C 69.984375 24.914062 74.785156 24.027344 79.648438 23.546875 C 84.28125 23.09375 88.878906 23.203125 93.476562 23.855469 C 96.304688 24.261719 99.117188 24.742188 101.914062 25.269531 C 103.375 25.550781 104.867188 25.765625 106.3125 26.308594 C 106.375 26.589844 106.46875 26.839844 106.484375 27.085938 C 106.605469 28.359375 106.714844 29.636719 106.839844 30.925781 Z M 130.222656 38.226562 C 131.390625 37.804688 132.199219 37.882812 132.976562 38.179688 C 134.046875 38.582031 135.117188 38.972656 136.144531 39.453125 C 141.957031 42.171875 148.078125 43.988281 154.277344 45.464844 C 162.699219 47.46875 171.152344 49.363281 179.601562 51.242188 C 184.3125 52.300781 189.066406 53.15625 193.867188 53.636719 C 197.640625 54.007812 201.402344 54.429688 205.164062 54.847656 C 208.363281 55.203125 211.546875 55.59375 214.75 55.949219 C 215.882812 56.074219 217.015625 56.199219 218.152344 56.292969 C 222.191406 56.617188 226.214844 57.054688 230.253906 57.222656 C 234.511719 57.410156 238.769531 57.425781 243.027344 57.378906 C 247.082031 57.332031 251.121094 57.164062 255.164062 56.929688 C 258.425781 56.742188 261.6875 56.417969 264.933594 56.136719 C 267.671875 55.902344 270.421875 55.640625 273.15625 55.40625 C 276.355469 55.128906 279.570312 54.847656 282.773438 54.613281 C 284.792969 54.460938 286.8125 54.367188 288.832031 54.273438 C 291.847656 54.132812 294.84375 54.023438 297.859375 53.867188 C 300.8125 53.714844 303.765625 53.527344 306.714844 53.355469 C 308.890625 53.230469 311.066406 53.109375 313.242188 53.015625 C 317.1875 52.859375 321.136719 52.734375 325.082031 52.625 C 329.136719 52.515625 333.175781 52.410156 337.230469 52.316406 C 342.109375 52.207031 346.988281 52.488281 351.867188 52.6875 C 356.808594 52.90625 361.6875 53.621094 366.441406 55.003906 C 372.113281 56.632812 377.367188 59.214844 382.320312 62.414062 C 382.742188 62.675781 383.175781 62.941406 383.597656 63.207031 C 383.796875 62.863281 383.550781 62.753906 383.441406 62.644531 C 382.246094 61.402344 380.890625 60.363281 379.464844 59.414062 C 373.960938 55.734375 367.933594 53.292969 361.453125 51.972656 C 357.273438 51.121094 353.050781 50.699219 348.808594 50.375 C 344.722656 50.046875 340.617188 49.890625 336.515625 49.90625 C 331.949219 49.921875 327.382812 50.15625 322.8125 50.328125 C 320.171875 50.421875 317.515625 50.542969 314.875 50.699219 C 310.210938 50.980469 305.550781 51.289062 300.890625 51.585938 C 298.871094 51.710938 296.851562 51.847656 294.828125 51.988281 C 292.761719 52.144531 290.695312 52.316406 288.613281 52.488281 C 287.0625 52.609375 285.507812 52.75 283.953125 52.859375 C 280.332031 53.109375 276.699219 53.355469 273.078125 53.605469 C 268.992188 53.882812 264.890625 54.195312 260.800781 54.414062 C 256.5 54.628906 252.195312 54.738281 247.875 54.894531 C 242.421875 55.097656 236.96875 55.066406 231.515625 54.894531 C 226.898438 54.753906 222.269531 54.644531 217.65625 54.414062 C 214.128906 54.242188 210.617188 53.914062 207.089844 53.621094 C 204.554688 53.402344 202.023438 53.199219 199.492188 52.890625 C 196.195312 52.488281 192.902344 52.082031 189.625 51.507812 C 169.628906 47.996094 150.253906 42.3125 131.328125 34.980469 C 130.753906 34.761719 130.179688 34.542969 129.648438 34.34375 C 129.246094 34.527344 129.355469 34.808594 129.371094 35.039062 C 129.480469 36.082031 129.601562 37.121094 129.710938 38.164062 C 129.882812 38.210938 130.054688 38.242188 130.222656 38.289062 C 130.300781 38.273438 130.253906 38.242188 130.222656 38.226562 Z M 111.734375 31.855469 C 111.9375 31.839844 112.15625 31.855469 112.339844 31.902344 C 112.699219 31.980469 113.039062 32.105469 113.382812 32.214844 C 115.945312 33.035156 118.507812 33.828125 121.058594 34.699219 C 121.835938 34.964844 122.550781 35.382812 123.292969 35.753906 C 123.527344 35.863281 123.730469 36.066406 123.667969 36.363281 C 123.667969 36.390625 123.652344 36.40625 123.636719 36.4375 C 124.398438 36.625 125.160156 36.84375 125.890625 37.074219 C 125.859375 36.78125 125.84375 36.484375 125.8125 36.175781 C 125.765625 35.664062 125.65625 35.148438 125.5625 34.574219 C 120.265625 33.050781 115.246094 30.847656 110.074219 28.625 C 110.042969 29.074219 109.964844 29.386719 110.011719 29.664062 C 110.117188 30.410156 110.273438 31.15625 110.398438 31.902344 C 110.679688 31.980469 110.941406 32.074219 111.222656 32.167969 C 111.347656 31.996094 111.546875 31.871094 111.734375 31.855469 Z M 111.734375 31.855469 " fill-opacity="1" fill-rule="nonzero"/><path fill="rgb(74.508667%, 78.819275%, 82.348633%)" d="M 409.699219 87.5 C 409.402344 74.902344 405.269531 63.765625 397.128906 54.085938 C 391.941406 47.902344 385.429688 43.742188 377.863281 41.144531 C 373.792969 39.746094 369.628906 38.660156 365.371094 37.945312 C 362.605469 37.496094 359.855469 36.984375 357.074219 36.59375 C 354.664062 36.253906 352.226562 36.003906 349.800781 35.769531 C 347.734375 35.570312 345.667969 35.414062 343.585938 35.273438 C 342.1875 35.179688 340.789062 35.101562 339.390625 35.101562 C 335.863281 35.101562 332.320312 35.070312 328.796875 35.210938 C 325.84375 35.335938 322.890625 35.664062 319.953125 35.941406 C 317.625 36.160156 315.308594 36.40625 312.992188 36.703125 C 310.210938 37.046875 307.429688 37.417969 304.664062 37.789062 C 301.945312 38.148438 299.210938 38.535156 296.492188 38.894531 C 294.332031 39.171875 292.171875 39.453125 289.996094 39.6875 C 287.371094 39.964844 284.730469 40.261719 282.089844 40.414062 C 276.433594 40.742188 270.792969 41.070312 265.136719 41.253906 C 260.101562 41.425781 255.070312 41.457031 250.019531 41.472656 C 243.992188 41.472656 237.960938 41.457031 231.949219 41.316406 C 227.644531 41.222656 223.339844 40.992188 219.039062 40.679688 C 215.417969 40.414062 211.8125 39.964844 208.191406 39.578125 C 206.390625 39.375 204.585938 39.15625 202.785156 38.910156 C 199.132812 38.398438 195.484375 37.898438 191.847656 37.339844 C 189.546875 36.984375 187.199219 36.78125 184.980469 36.019531 C 184.636719 35.910156 184.265625 35.816406 183.96875 35.632812 C 183.78125 35.523438 183.597656 35.210938 183.613281 35.027344 C 183.613281 34.964844 183.644531 34.902344 183.675781 34.855469 C 182.773438 34.746094 181.871094 34.652344 180.96875 34.527344 C 181.140625 34.636719 181.3125 34.761719 181.453125 34.902344 C 181.578125 35.011719 181.621094 35.273438 181.605469 35.460938 C 181.578125 35.753906 181.3125 35.910156 181.046875 35.910156 C 180.691406 35.925781 180.316406 35.878906 179.976562 35.785156 C 178.3125 35.367188 176.621094 35.054688 175.019531 34.480469 C 168.726562 32.214844 162.417969 29.976562 156.25 27.382812 C 152.769531 25.90625 149.320312 24.304688 145.824219 22.878906 C 141.117188 20.949219 136.378906 19.117188 131.636719 17.253906 C 131.015625 17.003906 130.378906 16.820312 129.648438 16.570312 C 129.539062 16.925781 129.417969 17.207031 129.386719 17.488281 C 129.324219 17.953125 129.308594 18.417969 129.308594 18.886719 C 129.308594 22.785156 129.308594 26.667969 129.308594 30.566406 C 129.308594 30.832031 129.339844 31.078125 129.371094 31.390625 C 129.632812 31.53125 129.882812 31.714844 130.164062 31.824219 C 136.285156 34.25 142.484375 36.5 148.730469 38.582031 C 148.964844 38.660156 149.226562 38.707031 149.554688 38.800781 C 151.230469 35.800781 153.140625 32.992188 155.164062 30.335938 C 155.566406 30.425781 155.660156 30.613281 155.597656 30.832031 C 155.503906 31.171875 155.378906 31.53125 155.238281 31.855469 C 154.449219 33.550781 153.59375 35.210938 152.441406 36.703125 C 151.835938 37.464844 151.292969 38.273438 150.640625 39.140625 C 151.230469 39.359375 151.714844 39.546875 152.195312 39.703125 C 159.808594 42.140625 167.515625 44.191406 175.300781 46.054688 C 179.539062 47.066406 183.78125 48.042969 188.085938 48.757812 C 191.257812 49.285156 194.441406 49.753906 197.625 50.15625 C 201.121094 50.589844 204.632812 50.949219 208.144531 51.304688 C 210.058594 51.492188 211.984375 51.601562 213.894531 51.726562 C 216.800781 51.894531 219.707031 52.082031 222.59375 52.207031 C 224.832031 52.300781 227.054688 52.332031 229.292969 52.378906 C 229.496094 52.378906 229.679688 52.332031 229.960938 52.285156 C 230.222656 50.296875 230.847656 48.417969 231.578125 46.597656 C 232.074219 45.355469 232.710938 44.160156 233.285156 42.933594 C 233.347656 42.792969 233.441406 42.652344 233.566406 42.558594 C 233.675781 42.480469 233.890625 42.390625 233.96875 42.449219 C 234.109375 42.558594 234.203125 42.746094 234.265625 42.933594 C 234.296875 43.011719 234.25 43.132812 234.21875 43.226562 C 233.765625 44.609375 233.363281 46.007812 232.867188 47.359375 C 232.277344 48.960938 231.621094 50.542969 230.953125 52.222656 C 231.28125 52.300781 231.5625 52.425781 231.839844 52.441406 C 232.507812 52.488281 233.191406 52.503906 233.859375 52.515625 C 240.820312 52.6875 247.78125 52.515625 254.726562 52.238281 C 259.296875 52.066406 263.847656 51.726562 268.414062 51.460938 C 270.589844 51.335938 272.765625 51.210938 274.941406 51.058594 C 278.003906 50.839844 281.046875 50.605469 284.109375 50.375 C 284.203125 50.375 284.296875 50.296875 284.480469 50.234375 C 284.839844 47.171875 285.957031 44.300781 287.511719 41.597656 C 287.542969 41.550781 287.699219 41.566406 287.792969 41.550781 C 288.085938 41.875 287.976562 42.234375 287.882812 42.574219 C 287.324219 44.46875 286.734375 46.335938 286.175781 48.230469 C 286.003906 48.804688 285.632812 49.347656 285.769531 50.03125 C 285.925781 50.078125 286.082031 50.171875 286.222656 50.15625 C 294.285156 49.597656 302.367188 49.007812 310.492188 48.433594 C 310.785156 47.15625 311.050781 45.898438 311.347656 44.65625 C 311.578125 43.648438 311.84375 42.636719 312.109375 41.644531 C 312.183594 41.347656 312.277344 41.039062 312.449219 40.773438 C 312.574219 40.585938 312.835938 40.371094 313.039062 40.371094 C 313.304688 40.371094 313.460938 40.664062 313.445312 40.945312 C 313.429688 41.253906 313.398438 41.566406 313.351562 41.875 C 313.039062 43.617188 312.714844 45.339844 312.417969 47.082031 C 312.355469 47.421875 312.339844 47.78125 312.292969 48.214844 C 312.683594 48.246094 312.976562 48.292969 313.273438 48.277344 C 316.847656 48.121094 320.4375 47.949219 324.007812 47.78125 C 324.429688 47.765625 324.832031 47.71875 325.253906 47.703125 C 328.15625 47.609375 331.0625 47.453125 333.96875 47.4375 C 338.738281 47.390625 343.523438 47.546875 348.292969 47.855469 C 351.605469 48.074219 354.914062 48.417969 358.207031 48.882812 C 366.332031 50.03125 373.917969 52.703125 380.785156 57.269531 C 385.335938 60.285156 388.910156 64.214844 391.300781 69.125 C 393.183594 72.976562 394.222656 77.078125 394.597656 81.382812 C 394.84375 84.144531 394.769531 86.878906 394.488281 89.613281 C 394.039062 93.964844 393.011719 98.1875 391.300781 102.242188 C 387.992188 110.089844 382.972656 116.691406 376.574219 122.269531 C 370.265625 127.75 363.164062 132.023438 355.722656 135.785156 C 349.070312 139.140625 342.109375 141.671875 335.027344 143.875 C 327.988281 146.082031 320.839844 147.871094 313.660156 149.5 C 306.839844 151.054688 299.988281 152.53125 293.136719 154.003906 C 288.164062 155.078125 283.160156 155.976562 278.125 156.707031 C 274.785156 157.191406 271.460938 157.703125 268.105469 158.136719 C 265.789062 158.433594 263.460938 158.648438 261.144531 158.882812 C 258.253906 159.164062 255.363281 159.441406 252.457031 159.691406 C 250.796875 159.832031 249.148438 159.957031 247.488281 160.046875 C 244.84375 160.203125 242.203125 160.328125 239.546875 160.453125 C 236.222656 160.625 232.914062 160.792969 229.585938 160.933594 C 228.082031 160.996094 226.574219 161.027344 225.066406 161.042969 C 219.96875 161.121094 214.890625 161.261719 209.792969 161.246094 C 203.917969 161.230469 198.0625 161.121094 192.1875 160.949219 C 188.148438 160.839844 184.09375 160.625 180.054688 160.328125 C 176.015625 160.03125 171.988281 159.660156 167.964844 159.210938 C 163.476562 158.710938 158.984375 158.214844 154.523438 157.53125 C 149.554688 156.769531 144.613281 155.839844 139.671875 154.890625 C 130.238281 153.074219 120.917969 150.820312 111.671875 148.242188 C 101.636719 145.429688 91.660156 142.355469 81.933594 138.59375 C 74.039062 135.535156 66.304688 132.132812 58.90625 128 C 53.5 124.988281 48.324219 121.617188 43.570312 117.65625 C 39.128906 113.941406 35.117188 109.824219 31.886719 104.992188 C 28.3125 99.664062 25.828125 93.886719 24.769531 87.546875 C 24.054688 83.292969 23.855469 78.988281 24.242188 74.671875 C 24.601562 70.722656 25.144531 66.839844 26.214844 63.019531 C 26.652344 61.464844 27.179688 59.957031 27.675781 58.421875 C 27.785156 58.078125 27.894531 57.753906 28.035156 57.347656 C 27.132812 57.179688 26.308594 57.316406 25.5 57.378906 C 21.507812 57.675781 17.53125 57.96875 13.523438 57.90625 C 13.320312 57.90625 13.085938 57.9375 12.914062 57.863281 C 12.746094 57.785156 12.542969 57.628906 12.496094 57.457031 C 12.402344 57.195312 12.558594 56.945312 12.808594 56.820312 C 12.992188 56.726562 13.195312 56.695312 13.398438 56.664062 C 15.511719 56.386719 17.625 56.246094 19.769531 56.277344 C 22.207031 56.324219 24.648438 56.339844 27.085938 56.371094 C 27.550781 56.371094 28.003906 56.371094 28.515625 56.371094 C 28.75 55.886719 28.964844 55.484375 29.167969 55.066406 C 30.832031 51.820312 32.773438 48.757812 35.148438 45.992188 C 36.269531 44.6875 37.292969 43.320312 38.382812 42 C 38.707031 41.597656 39.035156 41.191406 39.421875 40.851562 C 39.609375 40.679688 39.8125 40.585938 40.011719 40.585938 C 40.574219 39.6875 41.273438 38.910156 42.035156 38.179688 C 41.847656 37.882812 41.863281 37.511719 42.125 37.105469 C 42.933594 35.878906 43.882812 34.777344 45.09375 33.9375 C 46.757812 32.789062 48.402344 31.59375 50.160156 30.582031 C 55.300781 27.632812 60.664062 25.128906 66.394531 23.53125 C 70.746094 22.316406 75.175781 21.464844 79.695312 21.058594 C 81.824219 20.875 83.9375 20.796875 86.066406 20.8125 C 89.875 20.828125 93.632812 21.261719 97.363281 21.914062 C 100.269531 22.425781 103.171875 22.984375 106.15625 23.546875 C 106.203125 23.25 106.28125 22.953125 106.28125 22.675781 C 106.296875 21.058594 106.28125 19.460938 106.28125 17.84375 C 106.265625 15.605469 106.484375 13.386719 106.824219 11.179688 C 106.839844 11.039062 106.808594 10.882812 106.808594 10.746094 C 104.773438 10.0625 96.492188 9.175781 91.054688 8.988281 C 82.976562 8.757812 75.035156 9.515625 67.03125 10.867188 C 67.296875 11.613281 67.917969 11.957031 68.246094 12.5 C 68.585938 13.074219 68.960938 13.632812 69.285156 14.222656 C 69.613281 14.816406 69.921875 15.421875 70.1875 16.027344 C 70.453125 16.648438 70.699219 17.285156 70.886719 17.921875 C 71.058594 18.527344 71.476562 19.132812 71.226562 19.988281 C 70.1875 19.164062 69.769531 18.078125 69.160156 17.160156 C 68.523438 16.214844 67.980469 15.203125 67.421875 14.210938 C 66.863281 13.214844 66.347656 12.203125 65.804688 11.210938 C 61.082031 11.507812 46.304688 16.882812 41.941406 19.894531 C 41.847656 20.207031 42.140625 20.328125 42.296875 20.5 C 43.121094 21.371094 43.945312 22.226562 44.800781 23.0625 C 46.136719 24.398438 47.175781 25.9375 48.125 27.570312 C 48.402344 28.050781 48.605469 28.59375 48.761719 29.136719 C 48.808594 29.308594 48.589844 29.558594 48.496094 29.742188 C 47.90625 29.695312 47.703125 29.308594 47.457031 28.984375 C 45.4375 26.402344 43.429688 23.824219 41.425781 21.246094 C 41.242188 21.011719 41.039062 20.78125 40.804688 20.46875 C 40.542969 20.59375 40.308594 20.671875 40.089844 20.8125 C 21.679688 31.746094 9.730469 47.515625 4.617188 68.363281 C 3.71875 72.042969 3.144531 75.804688 2.878906 79.578125 C 2.644531 82.839844 2.691406 86.117188 3.019531 89.382812 C 3.75 96.496094 5.347656 103.394531 7.929688 110.058594 C 9.375 113.785156 11.128906 117.328125 13.164062 120.683594 C 18.417969 126.914062 24.304688 132.582031 31.078125 137.273438 C 31.0625 137.179688 31.03125 137.074219 31.03125 136.949219 C 31.390625 137.105469 31.578125 137.164062 31.730469 137.273438 C 37.824219 141.625 44.175781 145.554688 50.703125 149.222656 C 56.328125 152.375 62.046875 155.308594 67.933594 157.921875 C 77.910156 162.347656 88.179688 165.9375 98.699219 168.839844 C 104.742188 170.503906 110.832031 172.074219 116.988281 173.316406 C 120.09375 173.953125 123.203125 174.480469 126.324219 175.054688 C 130.347656 175.800781 134.417969 176.328125 138.492188 176.855469 C 139.3125 176.964844 140.152344 176.964844 140.976562 177.011719 C 141.179688 177.027344 141.378906 177.089844 141.566406 177.136719 C 141.597656 177.152344 141.644531 177.214844 141.644531 177.261719 C 141.644531 177.324219 141.628906 177.386719 141.613281 177.449219 C 144.613281 177.757812 147.671875 178.070312 150.703125 178.300781 C 149.894531 178.144531 149.085938 177.992188 148.292969 177.851562 C 147.78125 177.757812 147.300781 177.617188 146.878906 177.386719 C 146.835938 177.042969 147.003906 176.917969 147.222656 176.933594 C 148.402344 177.074219 149.585938 177.230469 150.765625 177.371094 C 154.011719 177.757812 157.246094 178.175781 160.492188 178.519531 C 163.582031 178.84375 166.691406 179.078125 169.796875 179.3125 C 171.972656 179.46875 174.148438 179.589844 176.324219 179.652344 C 180.472656 179.792969 184.621094 179.980469 188.769531 179.949219 C 193.851562 179.917969 198.933594 179.667969 204.027344 179.511719 C 204.695312 179.496094 205.378906 179.46875 206.046875 179.453125 C 211.640625 179.21875 217.25 179 222.84375 178.738281 C 225.4375 178.613281 228.019531 178.363281 230.597656 178.128906 C 231.5 178.054688 232.445312 177.992188 233.207031 177.417969 C 233.285156 177.460938 233.347656 177.476562 233.363281 177.507812 C 233.582031 177.835938 233.660156 178.070312 233.566406 178.222656 C 234.714844 178.222656 235.863281 178.207031 237.015625 178.144531 C 236.953125 178.128906 236.890625 178.128906 236.8125 178.117188 C 237.015625 177.601562 237.292969 177.601562 237.542969 177.585938 C 240.789062 177.246094 244.054688 176.933594 247.300781 176.578125 C 250.34375 176.234375 253.375 175.863281 256.421875 175.472656 C 259.871094 175.039062 263.320312 174.589844 266.753906 174.09375 C 270.09375 173.609375 273.417969 173.082031 276.742188 172.507812 C 283.175781 171.390625 289.59375 170.097656 295.964844 168.640625 C 303.546875 166.914062 311.082031 164.941406 318.570312 162.84375 C 326.371094 160.667969 334.09375 158.292969 341.675781 155.417969 C 351.496094 151.691406 360.957031 147.1875 370.015625 141.871094 C 375.5 138.65625 380.550781 134.851562 385.507812 130.890625 C 386.921875 129.757812 388.304688 128.574219 389.71875 127.425781 C 389.902344 127.269531 390.152344 127.160156 390.386719 127.070312 C 390.449219 127.039062 390.589844 127.113281 390.648438 127.175781 C 395.140625 123.136719 399.523438 118.851562 403.140625 114.019531 C 405.519531 109.453125 407.289062 104.558594 408.425781 99.355469 C 409.296875 95.488281 409.792969 91.507812 409.699219 87.5 Z M 136.347656 21.464844 C 135.972656 22.273438 135.585938 23.0625 135.164062 23.824219 C 134.589844 24.867188 134 25.90625 133.332031 26.902344 C 132.898438 27.539062 132.351562 28.097656 131.824219 28.6875 C 131.714844 28.8125 131.5 28.859375 131.171875 28.996094 C 131.203125 28.65625 131.171875 28.453125 131.25 28.285156 C 132.058594 26.652344 132.867188 25.035156 133.71875 23.421875 C 134.203125 22.488281 134.902344 21.710938 135.710938 21.042969 C 135.847656 20.933594 136.082031 20.949219 136.269531 20.90625 C 136.300781 21.105469 136.425781 21.324219 136.347656 21.464844 Z M 176.015625 45.183594 C 175.859375 45.417969 175.546875 45.542969 175.238281 45.777344 C 175.144531 45.464844 175.035156 45.277344 175.050781 45.09375 C 175.082031 44.796875 175.144531 44.46875 175.269531 44.191406 C 176.527344 41.519531 178.019531 38.988281 179.992188 36.765625 C 180.195312 36.546875 180.378906 36.253906 180.953125 36.546875 C 179.601562 39.65625 177.910156 42.480469 176.015625 45.183594 Z M 205.628906 42.605469 C 204.898438 45.078125 204.121094 47.53125 202.722656 49.738281 C 202.660156 49.828125 202.613281 49.921875 202.535156 49.96875 C 202.414062 50.046875 202.195312 50.15625 202.132812 50.109375 C 202.007812 49.984375 201.867188 49.785156 201.882812 49.628906 C 201.929688 49.269531 202.039062 48.929688 202.148438 48.585938 C 202.816406 46.460938 203.964844 44.546875 204.992188 42.589844 C 205.070312 42.433594 205.253906 42.3125 205.457031 42.125 C 205.550781 42.34375 205.660156 42.496094 205.628906 42.605469 Z M 258.550781 44.175781 C 258.378906 45.199219 258.238281 46.226562 258.019531 47.234375 C 257.757812 48.402344 257.429688 49.550781 257.121094 50.699219 C 257.058594 50.949219 256.980469 51.210938 256.824219 51.398438 C 256.714844 51.523438 256.453125 51.632812 256.296875 51.601562 C 256.140625 51.554688 255.984375 51.351562 255.90625 51.179688 C 255.847656 51.058594 255.863281 50.871094 255.894531 50.730469 C 256.28125 48.585938 256.621094 46.429688 257.476562 44.410156 C 257.632812 44.035156 257.679688 43.585938 258.160156 43.429688 C 258.550781 43.539062 258.613281 43.847656 258.550781 44.175781 Z M 336.144531 44.71875 C 335.957031 45.136719 335.695312 45.527344 335.445312 45.898438 C 335.382812 45.992188 335.132812 46.085938 335.042969 46.039062 C 334.886719 45.960938 334.667969 45.789062 334.652344 45.652344 C 334.605469 45.246094 334.558594 44.8125 334.683594 44.441406 C 335.460938 41.984375 336.285156 39.53125 337.09375 37.089844 C 337.136719 36.96875 337.277344 36.875 337.527344 36.609375 C 337.652344 36.921875 337.761719 37.058594 337.746094 37.183594 C 337.417969 39.734375 337.214844 42.328125 336.144531 44.71875 Z M 362.960938 39.71875 C 362.761719 40.570312 362.574219 41.441406 362.261719 42.265625 C 361.625 43.957031 360.910156 45.636719 360.226562 47.296875 C 360.132812 47.515625 359.949219 47.6875 359.683594 48.042969 C 359.542969 47.609375 359.355469 47.328125 359.371094 47.066406 C 359.417969 46.503906 359.496094 45.914062 359.683594 45.386719 C 360.398438 43.335938 361.238281 41.316406 362.324219 39.4375 C 362.417969 39.28125 362.589844 39.15625 362.851562 38.863281 C 362.914062 39.265625 363.023438 39.515625 362.960938 39.71875 Z M 384.511719 45.882812 C 384.449219 46.070312 384.386719 46.289062 384.265625 46.429688 C 382.261719 48.804688 380.253906 51.179688 378.25 53.558594 C 378.003906 53.851562 377.738281 54.242188 377.226562 54.117188 C 376.867188 53.589844 377.101562 53.078125 377.382812 52.65625 C 378.097656 51.585938 378.765625 50.453125 379.632812 49.503906 C 380.785156 48.246094 382.089844 47.128906 383.347656 45.976562 C 383.566406 45.777344 383.859375 45.652344 384.140625 45.511719 C 384.203125 45.480469 384.34375 45.558594 384.402344 45.621094 C 384.464844 45.683594 384.527344 45.804688 384.511719 45.882812 Z M 91.039062 11.117188 C 91.039062 10.855469 91.257812 10.589844 91.394531 10.277344 C 91.597656 10.449219 91.769531 10.527344 91.800781 10.652344 C 91.941406 11.148438 92.09375 11.644531 92.15625 12.160156 C 92.40625 14.316406 92.5625 16.492188 92.21875 18.667969 C 92.203125 18.714844 92.203125 18.777344 92.1875 18.824219 C 92.109375 18.929688 91.972656 19.148438 91.925781 19.132812 C 91.753906 19.085938 91.503906 18.960938 91.472656 18.839844 C 91.304688 18.03125 91.117188 17.207031 91.085938 16.382812 C 91.007812 14.644531 91.023438 12.886719 91.039062 11.117188 Z M 24.117188 37.742188 C 24.273438 37.714844 24.429688 37.714844 24.832031 37.667969 C 26.308594 37.945312 28.066406 38.195312 29.757812 38.644531 C 31.25 39.035156 32.695312 39.640625 34.15625 40.167969 C 34.34375 40.230469 34.511719 40.371094 34.652344 40.492188 C 34.699219 40.539062 34.667969 40.679688 34.652344 40.757812 C 34.652344 40.804688 34.574219 40.851562 34.542969 40.851562 C 34.296875 40.851562 34.03125 40.867188 33.796875 40.804688 C 31.46875 40.339844 29.136719 39.855469 26.804688 39.375 C 26.089844 39.234375 25.390625 39.09375 24.675781 38.941406 C 24.429688 38.894531 24.164062 38.847656 23.949219 38.707031 C 23.792969 38.613281 23.652344 38.398438 23.636719 38.226562 C 23.605469 37.945312 23.855469 37.804688 24.117188 37.742188 Z M 7.414062 77.777344 C 7.308594 77.746094 7.167969 77.558594 7.152344 77.433594 C 7.136719 77.3125 7.246094 77.109375 7.351562 77.046875 C 7.679688 76.890625 8.019531 76.734375 8.363281 76.6875 C 9.792969 76.457031 11.222656 76.222656 12.667969 76.035156 C 15.695312 75.632812 18.726562 75.246094 21.757812 74.855469 C 22.363281 74.777344 22.96875 74.640625 23.621094 75.152344 C 23.308594 75.292969 23.015625 75.492188 22.6875 75.585938 C 19.238281 76.535156 15.773438 77.359375 12.214844 77.777344 C 10.988281 77.917969 9.730469 77.933594 8.488281 77.964844 C 8.128906 77.964844 7.757812 77.871094 7.414062 77.777344 Z M 23.574219 100.535156 C 20.375 101.855469 17.171875 103.160156 13.957031 104.464844 C 13.335938 104.714844 12.683594 104.902344 12.046875 105.070312 C 11.9375 105.101562 11.734375 104.992188 11.65625 104.902344 C 11.515625 104.683594 11.671875 104.496094 11.859375 104.402344 C 15.757812 102.492188 19.800781 100.890625 23.992188 99.757812 C 24.117188 99.726562 24.289062 99.789062 24.429688 99.804688 C 24.445312 99.882812 24.476562 99.976562 24.492188 100.054688 C 24.195312 100.222656 23.902344 100.410156 23.574219 100.535156 Z M 42.25 120.839844 C 38.644531 122.890625 35.027344 124.925781 31.421875 126.992188 C 30.660156 127.425781 29.867188 127.796875 29.261719 128.496094 C 29.027344 128.761719 28.515625 128.808594 28.128906 128.855469 C 27.988281 128.871094 27.738281 128.683594 27.660156 128.527344 C 27.582031 128.375 27.597656 128.078125 27.707031 127.96875 C 27.988281 127.675781 28.3125 127.425781 28.65625 127.175781 C 32.214844 124.503906 36.191406 122.625 40.261719 120.886719 C 40.976562 120.574219 41.707031 120.296875 42.4375 120.03125 C 42.609375 119.96875 42.824219 120 43.011719 119.984375 C 43.042969 120.078125 43.089844 120.171875 43.121094 120.28125 C 42.824219 120.449219 42.546875 120.667969 42.25 120.839844 Z M 61.546875 133.421875 C 61.425781 133.59375 61.285156 133.75 61.128906 133.871094 C 60.617188 134.308594 60.074219 134.710938 59.558594 135.128906 C 58.703125 135.8125 57.851562 136.480469 57.027344 137.195312 C 54.789062 139.140625 52.226562 140.613281 49.507812 142.585938 C 49.601562 142.027344 49.570312 141.8125 49.664062 141.671875 C 49.878906 141.375 50.128906 141.113281 50.40625 140.878906 C 51.804688 139.652344 53.203125 138.425781 54.617188 137.195312 C 54.976562 136.886719 55.347656 136.605469 55.738281 136.359375 C 57.351562 135.332031 58.984375 134.308594 60.617188 133.296875 C 60.832031 133.171875 61.082031 133.082031 61.316406 133.019531 C 61.394531 133.003906 61.515625 133.082031 61.5625 133.140625 C 61.59375 133.21875 61.59375 133.359375 61.546875 133.421875 Z M 85.570312 145.167969 C 83.71875 147.046875 81.839844 148.894531 80.039062 150.835938 C 79.089844 151.847656 78.28125 153.011719 77.414062 154.097656 C 77.257812 154.300781 77.085938 154.488281 76.898438 154.65625 C 76.757812 154.78125 76.449219 154.65625 76.386719 154.488281 C 76.246094 153.957031 76.308594 153.445312 76.589844 152.996094 C 77.054688 152.25 77.488281 151.472656 78.082031 150.820312 C 80.332031 148.304688 82.867188 146.082031 85.601562 144.109375 C 85.863281 143.921875 86.128906 143.769531 86.410156 144.109375 C 86.347656 144.621094 85.894531 144.839844 85.570312 145.167969 Z M 111.347656 149.6875 C 110.648438 150.835938 109.949219 151.984375 109.21875 153.121094 C 107.167969 156.304688 105.363281 159.628906 103.625 162.984375 C 103.003906 164.179688 102.382812 165.375 102.007812 166.683594 C 101.960938 166.867188 101.820312 167.039062 101.742188 167.179688 C 101.417969 167.195312 101.324219 167.023438 101.292969 166.804688 C 101.199219 165.734375 101.574219 164.753906 101.992188 163.808594 C 103.234375 160.902344 104.570312 158.042969 106.171875 155.308594 C 107.398438 153.199219 108.765625 151.195312 110.398438 149.375 C 110.601562 149.144531 110.847656 148.941406 111.082031 148.753906 C 111.144531 148.707031 111.269531 148.722656 111.378906 148.722656 C 111.734375 149.050781 111.546875 149.359375 111.347656 149.6875 Z M 138.675781 158.246094 C 138.550781 158.695312 138.367188 159.132812 138.179688 159.550781 C 136.84375 162.519531 135.507812 165.484375 134.171875 168.453125 C 133.628906 169.664062 133.082031 170.890625 132.539062 172.148438 C 132.199219 172.210938 132.027344 171.933594 131.949219 171.636719 C 131.886719 171.402344 131.886719 171.125 131.949219 170.875 C 132.074219 170.316406 132.230469 169.773438 132.429688 169.246094 C 133.828125 165.4375 135.648438 161.851562 137.761719 158.402344 C 137.945312 158.105469 138.085938 157.734375 138.613281 157.71875 C 138.628906 157.890625 138.722656 158.089844 138.675781 158.246094 Z M 164.375 162.96875 C 164.050781 164.273438 163.691406 165.5625 163.335938 166.867188 C 162.652344 169.371094 162.167969 171.902344 161.703125 174.449219 C 161.625 174.898438 161.46875 175.335938 161.300781 175.769531 C 161.269531 175.863281 161.035156 175.957031 160.910156 175.957031 C 160.785156 175.941406 160.585938 175.800781 160.570312 175.707031 C 160.492188 175.148438 160.460938 174.589844 160.429688 174.261719 C 160.648438 171.265625 161.175781 168.578125 162.109375 165.984375 C 162.542969 164.769531 163.085938 163.589844 163.597656 162.410156 C 163.691406 162.175781 163.863281 161.976562 164.019531 161.773438 C 164.066406 161.710938 164.222656 161.695312 164.296875 161.710938 C 164.375 161.742188 164.5 161.851562 164.484375 161.914062 C 164.484375 162.253906 164.46875 162.628906 164.375 162.96875 Z M 195.109375 164.210938 C 194.953125 165.546875 194.8125 166.882812 194.613281 168.203125 C 194.269531 170.550781 193.882812 172.894531 193.554688 175.257812 C 193.460938 175.910156 193.539062 176.59375 193.523438 177.261719 C 193.523438 177.539062 193.429688 177.773438 193.121094 177.820312 C 192.839844 177.867188 192.59375 177.742188 192.46875 177.507812 C 192.34375 177.292969 192.25 177.027344 192.234375 176.777344 C 192.203125 176.15625 192.21875 175.535156 192.21875 174.914062 C 192.5 171.464844 193.058594 168.046875 194.023438 164.707031 C 194.097656 164.460938 194.144531 164.195312 194.285156 163.980469 C 194.378906 163.824219 194.566406 163.699219 194.738281 163.621094 C 194.90625 163.574219 195.140625 163.886719 195.109375 164.210938 Z M 225.84375 174.746094 C 225.796875 174.867188 225.65625 174.960938 225.53125 175.023438 C 225.46875 175.054688 225.316406 174.976562 225.269531 174.898438 C 225.160156 174.730469 225.066406 174.527344 225.035156 174.339844 C 224.523438 171.964844 223.992188 169.601562 223.511719 167.226562 C 223.386719 166.574219 223.449219 165.890625 223.449219 165.222656 C 223.449219 165.066406 223.480469 164.894531 223.574219 164.785156 C 223.699219 164.648438 223.886719 164.476562 224.054688 164.460938 C 224.226562 164.445312 224.476562 164.539062 224.585938 164.679688 C 224.738281 164.863281 224.847656 165.128906 224.878906 165.375 C 225.207031 168.34375 225.53125 171.328125 225.890625 174.652344 C 225.875 174.449219 225.90625 174.621094 225.84375 174.746094 Z M 258.113281 172.847656 C 257.851562 172.507812 257.679688 172.382812 257.617188 172.210938 C 256.808594 169.976562 255.863281 167.785156 255.675781 165.375 C 255.566406 163.996094 255.582031 162.582031 255.566406 161.199219 C 255.566406 160.792969 255.644531 160.390625 256.140625 160.09375 C 256.25 160.296875 256.390625 160.453125 256.421875 160.625 C 256.605469 161.898438 256.824219 163.171875 256.949219 164.460938 C 257.167969 166.683594 257.710938 168.839844 258.175781 171.015625 C 258.300781 171.527344 258.535156 172.085938 258.113281 172.847656 Z M 286.9375 166.058594 C 286.796875 166.058594 286.609375 166.03125 286.546875 165.953125 C 286.425781 165.796875 286.347656 165.59375 286.285156 165.40625 C 285.632812 163.652344 284.964844 161.914062 284.359375 160.15625 C 284.015625 159.179688 283.765625 158.167969 283.921875 157.113281 C 283.9375 156.988281 284.09375 156.769531 284.171875 156.785156 C 284.34375 156.816406 284.605469 156.894531 284.667969 157.035156 C 284.980469 157.859375 285.289062 158.679688 285.523438 159.535156 C 286.019531 161.335938 286.484375 163.140625 286.953125 164.941406 C 287.03125 165.238281 287.078125 165.546875 287.125 165.828125 C 287.046875 165.90625 287 166.058594 286.9375 166.058594 Z M 317.699219 157.34375 C 317.546875 157.144531 317.40625 156.910156 317.3125 156.675781 C 316.753906 155.339844 316.195312 154.019531 315.648438 152.683594 C 315.402344 152.0625 315.246094 151.394531 315.371094 150.710938 C 315.402344 150.542969 315.574219 150.417969 315.695312 150.261719 C 315.851562 150.371094 315.976562 150.417969 316.007812 150.496094 C 316.800781 152.777344 317.578125 155.0625 318.339844 157.3125 C 318.089844 157.65625 317.886719 157.578125 317.699219 157.34375 Z M 348.449219 150.914062 C 348.386719 150.945312 348.246094 150.929688 348.171875 150.882812 C 348.078125 150.835938 348 150.757812 347.9375 150.679688 C 346.570312 148.675781 345.140625 146.703125 344.300781 144.40625 C 344.128906 143.921875 343.976562 143.425781 343.867188 142.929688 C 343.851562 142.835938 344.007812 142.695312 344.097656 142.539062 C 344.269531 142.601562 344.457031 142.601562 344.535156 142.710938 C 344.8125 143.070312 345.109375 143.441406 345.3125 143.863281 C 346.367188 145.988281 347.410156 148.117188 348.449219 150.246094 C 348.511719 150.386719 348.574219 150.527344 348.574219 150.679688 C 348.589844 150.742188 348.511719 150.867188 348.449219 150.914062 Z M 374.335938 136.40625 C 373.449219 135.628906 372.71875 134.820312 372.097656 133.964844 C 371.210938 132.753906 370.40625 131.511719 369.550781 130.285156 C 369.488281 130.207031 369.441406 130.113281 369.394531 130.019531 C 369.238281 129.742188 369.160156 129.445312 369.410156 129.164062 C 369.628906 128.933594 370.015625 129.011719 370.359375 129.351562 C 370.4375 129.429688 370.496094 129.507812 370.558594 129.585938 C 371.894531 131.480469 373.324219 133.296875 374.351562 135.394531 C 374.476562 135.660156 374.660156 135.921875 374.335938 136.40625 Z M 391.722656 64.074219 C 391.179688 64.355469 390.632812 64.402344 390.105469 64.027344 C 389.902344 63.890625 389.875 63.5 390.074219 63.34375 C 390.121094 63.3125 390.152344 63.265625 390.199219 63.253906 C 390.292969 63.207031 390.386719 63.160156 390.480469 63.113281 C 392.792969 62.085938 395.125 61.046875 397.441406 60.019531 C 397.8125 59.851562 398.171875 59.632812 398.699219 59.835938 C 398.558594 60.066406 398.496094 60.269531 398.355469 60.363281 C 397.765625 60.78125 397.160156 61.203125 396.523438 61.542969 C 394.953125 62.414062 393.339844 63.238281 391.722656 64.074219 Z M 397.875 117.699219 C 397.175781 117.53125 396.476562 117.328125 395.792969 117.09375 C 393.585938 116.363281 391.378906 115.621094 389.191406 114.875 C 389.097656 114.84375 389.035156 114.75 388.957031 114.703125 C 388.847656 114.40625 388.972656 114.175781 389.234375 114.082031 C 389.46875 114.003906 389.75 113.988281 389.996094 114.019531 C 390.308594 114.050781 390.617188 114.097656 390.898438 114.191406 C 393.398438 115.027344 395.871094 115.914062 398.246094 117.078125 C 398.449219 117.1875 398.621094 117.375 399.023438 117.714844 C 398.449219 117.714844 398.15625 117.761719 397.875 117.699219 Z M 404.324219 96.882812 C 401.683594 96.960938 399.054688 96.792969 396.507812 96.03125 C 395.824219 95.828125 395.109375 95.765625 394.222656 95.59375 C 394.566406 94.894531 395.078125 94.742188 395.667969 94.773438 C 396.382812 94.820312 397.113281 94.878906 397.828125 95.003906 C 400.066406 95.394531 402.304688 95.828125 404.523438 96.246094 C 404.789062 96.292969 405.039062 96.355469 405.039062 96.777344 C 404.789062 96.792969 404.554688 96.867188 404.324219 96.882812 Z M 400.578125 85.480469 C 400.160156 85.996094 399.738281 86.507812 399.304688 87.003906 C 399.210938 87.097656 399.054688 87.144531 398.886719 87.222656 C 398.792969 87.082031 398.636719 86.925781 398.667969 86.847656 C 398.761719 86.570312 398.871094 86.273438 399.070312 86.042969 C 399.476562 85.589844 399.910156 85.171875 400.359375 84.75 C 400.40625 84.707031 400.5625 84.75 400.625 84.796875 C 400.6875 84.84375 400.75 84.96875 400.734375 85.046875 C 400.71875 85.203125 400.671875 85.359375 400.578125 85.480469 Z M 400.828125 86.601562 C 401.027344 86.570312 400.96875 87.035156 400.671875 87.347656 C 400.46875 87.5625 400.222656 87.75 399.941406 88.015625 C 399.628906 87.394531 399.957031 87.144531 400.191406 86.910156 C 400.359375 86.757812 400.609375 86.648438 400.828125 86.601562 Z M 406.453125 77.480469 C 404.601562 78.179688 399.644531 78.722656 395.808594 78.648438 C 395.652344 78.273438 395.761719 77.996094 396.027344 77.917969 C 396.507812 77.761719 397.019531 77.636719 397.535156 77.589844 C 400.222656 77.371094 402.894531 77.1875 405.582031 77 C 405.921875 76.96875 406.296875 76.90625 406.574219 77.171875 C 406.515625 77.3125 406.515625 77.449219 406.453125 77.480469 Z M 109.824219 24.554688 C 109.589844 23.078125 109.605469 20.003906 109.855469 18.558594 C 110.648438 18.558594 111.332031 18.917969 112.109375 19.164062 C 112.078125 19.507812 112.046875 19.816406 112 20.113281 C 111.921875 20.671875 111.828125 21.246094 111.75 21.804688 C 111.703125 22.117188 111.6875 22.425781 112.015625 22.613281 C 112.277344 22.769531 112.589844 22.535156 112.761719 22.023438 C 113.007812 21.246094 113.242188 20.453125 113.507812 19.585938 C 114.035156 19.738281 114.46875 19.832031 114.890625 19.988281 C 116.957031 20.796875 119.039062 21.605469 121.105469 22.457031 C 122.441406 23 123.761719 23.609375 125.097656 24.183594 C 125.316406 25.191406 125.359375 28.160156 125.160156 29.789062 C 123.855469 29.449219 122.65625 28.875 121.398438 28.4375 C 120.078125 27.972656 118.773438 27.476562 117.453125 27.007812 C 116.179688 26.558594 114.90625 26.140625 113.628906 25.734375 C 112.339844 25.332031 111.050781 24.945312 109.824219 24.554688 Z M 114.453125 15.484375 C 114.484375 14.9375 114.53125 14.519531 114.53125 14.117188 C 114.515625 13.867188 114.4375 13.617188 114.34375 13.371094 C 114.238281 13.074219 113.722656 13.011719 113.582031 13.292969 C 113.320312 13.789062 113.117188 14.316406 112.882812 14.832031 C 111.875 14.90625 111.640625 14.863281 110.042969 14.101562 C 110.085938 13.679688 110.132812 13.230469 110.210938 12.796875 C 110.289062 12.34375 110.382812 11.910156 110.476562 11.476562 C 112.714844 11.445312 123.339844 14.195312 125.671875 15.359375 C 125.625 18.246094 125.546875 18.929688 125.113281 19.972656 C 123.964844 19.382812 122.84375 18.761719 121.679688 18.21875 C 120.558594 17.6875 119.410156 17.191406 118.246094 16.757812 C 117.046875 16.304688 115.804688 15.933594 114.453125 15.484375 Z M 114.453125 15.484375 " fill-opacity="1" fill-rule="nonzero"/></svg>